<?xml version="1.0" encoding="UTF-8"?>
<svg version="1.1" xmlns="http://www.w3.org/2000/svg" width="417" height="417">
<path d="M0 0 C1.13219467 0.00131424 1.13219467 0.00131424 2.28726196 0.00265503 C56.75743192 0.20925493 103.96494411 22.58828083 143.125 59.375 C143.76050781 59.95636719 144.39601563 60.53773437 145.05078125 61.13671875 C150.58889343 66.384047 155.1469876 72.50716264 159.74609375 78.56933594 C160.99877139 80.20970489 162.27917056 81.82881099 163.5625 83.4453125 C184.10672846 110.40961236 196.42879503 144.82113926 200.125 178.375 C200.23457031 179.26574219 200.34414063 180.15648437 200.45703125 181.07421875 C205.78976878 232.05518952 190.28842665 285.42843645 158.125 325.375 C146.72591849 339.36810327 134.60637675 351.58354628 120.125 362.375 C119.30773437 362.99890625 118.49046875 363.6228125 117.6484375 364.265625 C76.11315537 394.81047165 20.99478543 407.08322161 -29.6875 399.8125 C-81.88175368 391.56131417 -129.98865744 363.63488323 -161.5625 321 C-182.27531988 292.33713957 -195.21661572 259.41717427 -199.875 224.375 C-200.00648438 223.405625 -200.13796875 222.43625 -200.2734375 221.4375 C-205.88842728 169.23327073 -189.72300032 116.42655095 -157.40234375 75.42578125 C-153.08803965 70.21794276 -148.54766003 65.26125789 -143.875 60.375 C-143.00101563 59.44816406 -142.12703125 58.52132812 -141.2265625 57.56640625 C-134.30800516 50.41452513 -126.88527207 44.24356916 -118.875 38.375 C-118.30861816 37.95895508 -117.74223633 37.54291016 -117.15869141 37.11425781 C-83.07651468 12.4499107 -41.90382119 -0.12050529 0 0 Z " fill="#437BD5" transform="translate(209.875,9.625)"/>
<path d="M0 0 C0.69480469 0.22042969 1.38960938 0.44085938 2.10546875 0.66796875 C10.12233203 3.54469382 16.25168854 9.90519063 22 16 C22 16.66 22 17.32 22 18 C22.66 18 23.32 18 24 18 C25.50389029 19.90472055 26.88264074 21.81204879 28.25 23.8125 C29.15104188 25.09987051 30.05346272 26.38627662 30.95703125 27.671875 C31.44510254 28.36861328 31.93317383 29.06535156 32.43603516 29.78320312 C50.65945233 56.89796242 50.65945233 56.89796242 75 78 C76.33596058 79.3307009 77.66924814 80.66409018 79 82 C96.2982184 94.06468098 116.45317656 98.58870617 137.25 98.3125 C138.70499558 98.30383919 140.15999236 98.29537721 141.61499023 98.28710938 C151.82935491 98.19309438 161.90321475 97.59049219 172 96 C170.51058114 101.29347514 167.06797396 104.38868627 163.25 108.125 C162.58331299 108.78371094 161.91662598 109.44242187 161.22973633 110.12109375 C154.87708097 116.29614154 148.12286008 121.74743693 141 127 C140.18660156 127.62003906 139.37320313 128.24007812 138.53515625 128.87890625 C105.41801592 153.27803015 65.34914728 165.04392113 24.625 164.375 C22.23308738 164.35843686 19.84115825 164.34410351 17.44921875 164.33203125 C13.1399341 164.29844253 8.83080753 164.26446283 4.52197266 164.19287109 C3.66979156 164.18001068 2.81761047 164.16715027 1.93960571 164.15390015 C0 164 0 164 -1 163 C-2.87144591 162.81403613 -4.74780304 162.6766224 -6.625 162.5625 C-11.37730787 162.21089727 -15.50010305 161.53405578 -20 160 C-20 159.01 -20 158.02 -20 157 C-20.99 156.67 -21.98 156.34 -23 156 C-23 156.66 -23 157.32 -23 158 C-26.71599191 158.20086443 -27.77208445 158.1519437 -31 156 C-32.010625 156.04125 -33.02125 156.0825 -34.0625 156.125 C-38.5521517 155.98247137 -41.55089113 154.77941603 -45.625 153.015625 C-48.16197756 151.88481936 -48.16197756 151.88481936 -51.5625 150.875 C-54 150 -54 150 -55 148 C-58.02934491 147.34227572 -58.02934491 147.34227572 -61 147 C-61.144375 146.0925 -61.28875 145.185 -61.4375 144.25 C-61.91186646 141.20749636 -61.91186646 141.20749636 -62.51538086 139.10180664 C-63.05864283 136.74566444 -63.21096973 134.536401 -63.31640625 132.12109375 C-63.37924805 130.73954102 -63.37924805 130.73954102 -63.44335938 129.33007812 C-63.48267578 128.37552734 -63.52199219 127.42097656 -63.5625 126.4375 C-63.60568359 125.47908203 -63.64886719 124.52066406 -63.69335938 123.53320312 C-63.84852424 120.01859568 -64 116.5184031 -64 113 C-64.33 112.67 -64.66 112.34 -65 112 C-65.9623753 95.8186664 -64.4096477 78.82289636 -61 63 C-60.835 62.11054688 -60.67 61.22109375 -60.5 60.3046875 C-59.68654602 55.94508256 -58.66373341 52.11789956 -57 48 C-56.53963782 46.33950288 -56.10302122 44.67228172 -55.6875 43 C-51.21265682 26.53345882 -43.9952028 9.85702864 -28.796875 0.66796875 C-19.13833525 -4.39382153 -9.99210639 -4.0287889 0 0 Z " fill="#2858A7" transform="translate(189,245)"/>
<path d="M0 0 C0.33 0.66 0.66 1.32 1 2 C0.67 2.99 0.34 3.98 0 5 C0.38932856 7.14255793 0.38932856 7.14255793 1 9 C1.78375 8.835 2.5675 8.67 3.375 8.5 C6 8 6 8 8 8 C7.67447917 9.98567708 7.34895833 11.97135417 7.0234375 13.95703125 C6.80422152 16.31755824 6.80422152 16.31755824 9 19 C9.69313908 20.65583225 10.36474424 22.32110979 11 24 C12.32 24 13.64 24 15 24 C16.35439668 26.70879335 16.06501451 29.00933268 16 32 C18.64 32 21.28 32 24 32 C25.24546405 34.49092811 24.7767578 35.41080733 24 38 C24.66 38.33 25.32 38.66 26 39 C25.67 39.66 25.34 40.32 25 41 C26.32 41 27.64 41 29 41 C29.495 43.97 29.495 43.97 30 47 C33.63 47.99 37.26 48.98 41 50 C41 51.98 41 53.96 41 56 C42.32 56 43.64 56 45 56 C45 56.66 45 57.32 45 58 C47.68537056 60.98374507 50.14296229 63.669987 54 65 C54.66 64.67 55.32 64.34 56 64 C56.33 65.32 56.66 66.64 57 68 C57.66 68 58.32 68 59 68 C59 68.66 59 69.32 59 70 C59.61875 70.12375 60.2375 70.2475 60.875 70.375 C63 71 63 71 65 73 C65.33 73.66 65.66 74.32 66 75 C66.598125 74.484375 67.19625 73.96875 67.8125 73.4375 C68.534375 72.963125 69.25625 72.48875 70 72 C71.485 72.495 71.485 72.495 73 73 C73 73.99 73 74.98 73 76 C72.34 76 71.68 76 71 76 C71 76.66 71 77.32 71 78 C71.66 78 72.32 78 73 78 C73 78.99 73 79.98 73 81 C74.093125 80.773125 75.18625 80.54625 76.3125 80.3125 C80 80 80 80 81.9375 81.4375 C82.288125 81.953125 82.63875 82.46875 83 83 C84.32 81.68 85.64 80.36 87 79 C87 79.66 87 80.32 87 81 C87.66 81.33 88.32 81.66 89 82 C89.625 84.5625 89.625 84.5625 90 87 C91.98 87.33 93.96 87.66 96 88 C96 88.99 96 89.98 96 91 C96.721875 90.938125 97.44375 90.87625 98.1875 90.8125 C101.59289116 91.03952608 103.09605681 92.24412738 106 94 C110.02194842 95.40300526 113.60419866 96 117.875 96 C118.90625 96 119.9375 96 121 96 C121.66 96.66 122.32 97.32 123 98 C125.06874034 98.6425235 125.06874034 98.6425235 127 99 C127 98.34 127 97.68 127 97 C128.65 97.33 130.3 97.66 132 98 C131.34 98.66 130.68 99.32 130 100 C135.47196785 101.86544358 140.66128205 102.39950166 146.42578125 102.75390625 C149 103 149 103 151 104 C153.35308979 104.07418316 155.7083337 104.08337438 158.0625 104.0625 C158.76842285 104.05871338 159.4743457 104.05492676 160.20166016 104.05102539 C163.21996251 104.03473361 166.23812901 104.0069246 169.25634766 103.97949219 C177.56881106 103.91038836 185.73531072 103.95051565 194 105 C194 105.33 194 105.66 194 106 C141.80441857 112.32290958 88.45065825 97.2186529 46.96655273 65.07592773 C25.86371334 48.26064936 7.78146286 27.8271715 -5 4 C-5 3.34 -5 2.68 -5 2 C-4.360625 1.855625 -3.72125 1.71125 -3.0625 1.5625 C-1.02454854 1.18992819 -1.02454854 1.18992819 0 0 Z " fill="#6397EA" transform="translate(39,304)"/>
<path d="M0 0 C1.9400364 2.91005459 2.50268746 4.53502661 3.21875 7.875 C3.42798096 8.85041748 3.63721191 9.82583496 3.8527832 10.83081055 C4.06636475 11.87664307 4.27994629 12.92247559 4.5 14 C4.83100708 15.61998901 4.83100708 15.61998901 5.16870117 17.27270508 C15.60017018 69.93511195 4.55142276 124.2058712 -25 169 C-29.33527779 175.25024712 -34.03745621 181.23704592 -39 187 C-40.65 186.67 -42.3 186.34 -44 186 C-43.34 185.01 -42.68 184.02 -42 183 C-41.01 183 -40.02 183 -39 183 C-38.67 181.35 -38.34 179.7 -38 178 C-36.35 177.67 -34.7 177.34 -33 177 C-32.505 175.02 -32.505 175.02 -32 173 C-31.34 173 -30.68 173 -30 173 C-29.5978125 171.7934375 -29.5978125 171.7934375 -29.1875 170.5625 C-28.795625 169.386875 -28.40375 168.21125 -28 167 C-27.65582031 165.89785156 -27.65582031 165.89785156 -27.3046875 164.7734375 C-24.58071192 156.20008278 -24.58071192 156.20008278 -22 153 C-20.68 153 -19.36 153 -18 153 C-18 152.34 -18 151.68 -18 151 C-17.34 151 -16.68 151 -16 151 C-16.21527344 150.28457031 -16.43054688 149.56914062 -16.65234375 148.83203125 C-17.08650387 145.29533364 -16.25461343 143.78282945 -14.5625 140.6875 C-14.08941406 139.80449219 -13.61632812 138.92148437 -13.12890625 138.01171875 C-12.75636719 137.34785156 -12.38382812 136.68398438 -12 136 C-11.34 136 -10.68 136 -10 136 C-8.98287674 132.94863022 -9.01175171 131.22121926 -9.1875 128.0625 C-9.24942661 123.34919725 -9.24942661 123.34919725 -7.125 120.375 C-5 119 -5 119 -3 119 C-2.98582031 118.41734375 -2.97164063 117.8346875 -2.95703125 117.234375 C-2.57953821 110.74557569 -0.86244862 105.65399423 1.84375 99.76171875 C3.72858552 95.25976364 4.10895442 91.34847174 4 86.5 C3.91740728 82.82462382 4.16852136 79.58575163 5 76 C5.66 76 6.32 76 7 76 C7 63.46 7 50.92 7 38 C6.34 38 5.68 38 5 38 C5 33.05 5 28.1 5 23 C4.01 22.67 3.02 22.34 2 22 C2.33 21.34 2.66 20.68 3 20 C3.039992 18.00039988 3.04346799 15.99952758 3 14 C2.34 14 1.68 14 1 14 C0.67 9.38 0.34 4.76 0 0 Z " fill="#6698EA" transform="translate(402,154)"/>
<path d="M0 0 C0.99 0.33 1.98 0.66 3 1 C3 1.99 3 2.98 3 4 C2.50072998 4.25692627 2.00145996 4.51385254 1.48706055 4.77856445 C-0.78253658 5.95069279 -3.04751521 7.1314853 -5.3125 8.3125 C-6.09818359 8.71662109 -6.88386719 9.12074219 -7.69335938 9.53710938 C-8.8293457 10.13168945 -8.8293457 10.13168945 -9.98828125 10.73828125 C-10.68477783 11.09962158 -11.38127441 11.46096191 -12.09887695 11.83325195 C-14.05259039 13.03227552 -15.40104217 14.37093908 -17 16 C-18.68676247 17.00556993 -20.37675141 18.00717308 -22.09765625 18.953125 C-23.98616613 19.99238711 -25.83399048 21.08735242 -27.6875 22.1875 C-30.35451082 23.64680781 -32.15453424 24.28863356 -35 25 C-35.45165527 25.48412354 -35.90331055 25.96824707 -36.36865234 26.46704102 C-38.68222063 28.64107503 -41.22342869 28.84183739 -44.26269531 29.43701172 C-49.69467243 30.55422 -55.02495173 32.10965934 -60.375 33.5625 C-61.54933594 33.87896484 -62.72367187 34.19542969 -63.93359375 34.52148438 C-70.00140284 36.14484448 -70.00140284 36.14484448 -76 38 C-79.38147081 38.12760267 -82.46358114 38.10518017 -85.7890625 37.453125 C-90.50253239 36.7879638 -94.9536481 37.49737969 -99.66015625 38.0390625 C-103.42770134 37.99499765 -105.11373013 37.38976598 -108 35 C-108 34.01 -108 33.02 -108 32 C-108.9075 32.0825 -109.815 32.165 -110.75 32.25 C-114 32 -114 32 -116.1875 30.125 C-116.785625 29.42375 -117.38375 28.7225 -118 28 C-118.99 27.34 -119.98 26.68 -121 26 C-121.33 25.01 -121.66 24.02 -122 23 C-118.39169986 24.34022577 -115.2914117 26.02020349 -112 28 C-99.02703066 35.26389107 -80.7260868 33.05502597 -66.64453125 30.2421875 C-63.70779302 29.97323954 -62.44581369 30.42393868 -60 32 C-59.505 30.515 -59.505 30.515 -59 29 C-57 28.25 -57 28.25 -55 28 C-54.67 28.33 -54.34 28.66 -54 29 C-51.66055264 28.71269945 -49.3260857 28.38063221 -47 28 C-47 27.01 -47 26.02 -47 25 C-46.39671875 24.96261719 -45.7934375 24.92523438 -45.171875 24.88671875 C-40.38905948 24.4932936 -37.77955011 24.04802428 -34 21 C-32.61479174 20.62495349 -31.21687861 20.29526688 -29.8125 20 C-28.554375 19.67 -27.29625 19.34 -26 19 C-25.505 17.515 -25.505 17.515 -25 16 C-19.62857143 12 -19.62857143 12 -17 12 C-17 11.34 -17 10.68 -17 10 C-15.68 10 -14.36 10 -13 10 C-13 9.34 -13 8.68 -13 8 C-11.125 6.9375 -11.125 6.9375 -9 6 C-8.01 6.495 -8.01 6.495 -7 7 C-6.67 6.01 -6.34 5.02 -6 4 C-3.5 2.375 -3.5 2.375 -1 1 C-0.67 0.67 -0.34 0.34 0 0 Z " fill="#699EF4" transform="translate(380,208)"/>
<path d="M0 0 C0.495 1.485 0.495 1.485 1 3 C0.34773438 3.42410156 -0.30453125 3.84820312 -0.9765625 4.28515625 C-13.62022358 12.77020904 -22.14002177 25.16402927 -26 40 C-26.24105469 40.88300781 -26.48210937 41.76601563 -26.73046875 42.67578125 C-27.24022001 44.54659426 -27.74420668 46.41898829 -28.2421875 48.29296875 C-28.95413394 50.83615888 -29.76117176 53.31746214 -30.625 55.8125 C-31.78146064 59.20997762 -32.50093884 62.43527743 -33 66 C-33.31765372 67.64088822 -33.63685396 69.28147732 -33.95703125 70.921875 C-35.07667026 77.05239055 -35.6599437 83.16454072 -36.125 89.375 C-36.20991699 90.46611084 -36.29483398 91.55722168 -36.38232422 92.68139648 C-36.9347209 100.13764029 -37.26759166 107.52229961 -37 115 C-36.34 115 -35.68 115 -35 115 C-35.16242188 115.57492187 -35.32484375 116.14984375 -35.4921875 116.7421875 C-37.04085203 123.62778824 -35.80950561 131.07583598 -35 138 C-35.66 138.33 -36.32 138.66 -37 139 C-37.13277344 138.38511719 -37.26554687 137.77023437 -37.40234375 137.13671875 C-37.57894531 136.32847656 -37.75554687 135.52023437 -37.9375 134.6875 C-38.11152344 133.88699219 -38.28554687 133.08648437 -38.46484375 132.26171875 C-38.99886159 129.854599 -38.99886159 129.854599 -40 127 C-40.09614792 124.77898305 -40.13074711 122.55512739 -40.1328125 120.33203125 C-40.13431305 119.66861221 -40.1358136 119.00519318 -40.13735962 118.32167053 C-40.13972286 116.15188643 -40.13343967 113.98226772 -40.125 111.8125 C-40.12278442 111.07235657 -40.12056885 110.33221313 -40.11828613 109.56964111 C-40.10005296 104.37949715 -40.05702967 99.18985229 -40 94 C-39.98743164 92.79102051 -39.97486328 91.58204102 -39.96191406 90.33642578 C-39.80158044 79.17033441 -39.25275188 68.91916002 -35.921875 58.2265625 C-34.57998783 53.52995739 -34.20226407 48.8644508 -34 44 C-33.34 44 -32.68 44 -32 44 C-31.82210937 43.15308594 -31.82210937 43.15308594 -31.640625 42.2890625 C-30.9388302 39.78142986 -29.94130908 37.68975878 -28.75 35.375 C-27.38765238 32.71685622 -26.030073 30.06246645 -24.734375 27.37109375 C-22.79946095 23.36043329 -20.85419943 19.63813079 -18.1875 16.0625 C-15.7093809 13.22038615 -15.7093809 13.22038615 -16 10 C-14.05017465 8.59431196 -12.04049422 7.2704964 -10 6 C-9.154375 5.29875 -8.30875 4.5975 -7.4375 3.875 C-5.01660037 2.01276952 -2.87446552 0.98553104 0 0 Z " fill="#6EA2F4" transform="translate(162,242)"/>
<path d="M0 0 C6.50684148 -0.43621284 12.04358821 1.14237926 18.25 3 C19.30034424 3.3103418 20.35068848 3.62068359 21.43286133 3.94042969 C32.92985653 7.43675473 44.81454707 11.49095316 55 18 C53.68 18.99 52.36 19.98 51 21 C50.34 20.67 49.68 20.34 49 20 C49.33 19.34 49.66 18.68 50 18 C48.9275 18.04125 47.855 18.0825 46.75 18.125 C43.34252515 18.0114175 41.79260369 17.78726636 39 16 C39 15.34 39 14.68 39 14 C37.02 14.33 35.04 14.66 33 15 C32.505 12.525 32.505 12.525 32 10 C29.69 9.67 27.38 9.34 25 9 C25 8.34 25 7.68 25 7 C23.35 7.66 21.7 8.32 20 9 C19.34 8.01 18.68 7.02 18 6 C14.74718795 4.41755089 11.55523589 3.60946901 8 3 C7.67 3.66 7.34 4.32 7 5 C7.66 5 8.32 5 9 5 C9.12375 5.8971875 9.12375 5.8971875 9.25 6.8125 C10.22294427 9.65025411 11.44449313 10.49676067 14 12 C14.99 12 15.98 12 17 12 C16.690625 13.175625 16.690625 13.175625 16.375 14.375 C16.25125 15.24125 16.1275 16.1075 16 17 C16.66 17.66 17.32 18.32 18 19 C20.60280568 18.67958603 20.60280568 18.67958603 23 18 C23 21.78706732 22.5745952 25.26513121 22 29 C22.66 29 23.32 29 24 29 C24.268125 29.598125 24.53625 30.19625 24.8125 30.8125 C25.87534145 33.01738561 25.87534145 33.01738561 27.5 34.5 C29.20060183 36.20060183 29.98407947 37.83270287 31 40 C31.66 40.99 32.32 41.98 33 43 C33.24324583 45.05021486 33.47226909 47.10276099 33.64453125 49.16015625 C33.94997582 52.05840556 33.94997582 52.05840556 34.76171875 55.05859375 C37.12356508 64.81590459 37.16929673 74.2740001 36.875 84.25 C36.85049774 85.29525848 36.85049774 85.29525848 36.82550049 86.3616333 C36.77362947 88.37182732 36.69583374 90.3813004 36.6171875 92.390625 C36.57190918 93.56657227 36.52663086 94.74251953 36.47998047 95.95410156 C35.97094373 99.18438759 35.18842512 100.62366133 33 103 C33.06928711 102.34225586 33.13857422 101.68451172 33.20996094 101.00683594 C34.79244646 85.01866368 35.45885702 68.56974872 31 53 C30.68289063 51.88238281 30.36578125 50.76476562 30.0390625 49.61328125 C24.39322095 32.05511445 13.91956035 16.13614022 1.46875 2.6796875 C0 1 0 1 0 0 Z " fill="#04193A" transform="translate(247,14)"/>
<path d="M0 0 C3.62912661 -0.51457765 4.95303354 -0.03012495 8.09375 1.984375 C9.2403839 2.89226003 10.3752449 3.81514681 11.5 4.75 C12.40987671 5.48621582 12.40987671 5.48621582 13.33813477 6.23730469 C19.81744991 11.54565927 25.94305308 17.21951124 32 23 C32.65355469 23.60070312 33.30710937 24.20140625 33.98046875 24.8203125 C40.03559879 30.54463971 44.99946527 37.35985539 50 44 C50.47429443 44.62463135 50.94858887 45.2492627 51.43725586 45.89282227 C54.9628026 50.65034445 54.9628026 50.65034445 55.3125 53.9375 C55.209375 54.618125 55.10625 55.29875 55 56 C54.01 56 53.02 56 52 56 C51.505 56.99 51.505 56.99 51 58 C50.34 58 49.68 58 49 58 C49 55.36 49 52.72 49 50 C48.01 49.505 48.01 49.505 47 49 C47 48.01 47 47.02 47 46 C46.67 45.01 46.34 44.02 46 43 C45.030625 42.731875 44.06125 42.46375 43.0625 42.1875 C41.5465625 41.5996875 41.5465625 41.5996875 40 41 C38.6875 38 38.6875 38 38 35 C37.67 34.34 37.34 33.68 37 33 C36.01 33 35.02 33 34 33 C34 32.34 34 31.68 34 31 C33.01 31 32.02 31 31 31 C31.33 29.02 31.66 27.04 32 25 C30.081875 24.690625 30.081875 24.690625 28.125 24.375 C25.9140625 23.84375 25.9140625 23.84375 24 23 C22.5 19.875 22.5 19.875 22 17 C20.02 17.33 18.04 17.66 16 18 C16 15 16 15 17 13 C16.34 12.67 15.68 12.34 15 12 C15.33 11.67 15.66 11.34 16 11 C15.05125 10.87625 14.1025 10.7525 13.125 10.625 C10 10 10 10 8 8 C7.67 7.01 7.34 6.02 7 5 C6.34 5 5.68 5 5 5 C5 4.34 5 3.68 5 3 C2.03 2.505 2.03 2.505 -1 2 C-0.67 1.34 -0.34 0.68 0 0 Z " fill="#1A3F77" transform="translate(321,46)"/>
<path d="M0 0 C0.33 0 0.66 0 1 0 C1 1.98 1 3.96 1 6 C0.34 6 -0.32 6 -1 6 C-1.433125 6.928125 -1.433125 6.928125 -1.875 7.875 C-3 10 -3 10 -5 12 C-5.103125 12.598125 -5.20625 13.19625 -5.3125 13.8125 C-6 16 -6 16 -8.625 18.4375 C-9.40875 19.283125 -10.1925 20.12875 -11 21 C-10.95020416 23.760165 -10.95020416 23.760165 -10 26 C-12.31 26 -14.62 26 -17 26 C-17.93380961 30.53140653 -17.93380961 30.53140653 -17 35 C-17.59793673 37.35188447 -18.25881795 39.68925595 -19 42 C-19.763125 42.020625 -20.52625 42.04125 -21.3125 42.0625 C-24.37841049 42.79236588 -24.37841049 42.79236588 -25.8125 46.375 C-27.15565406 49.83939641 -27.15565406 49.83939641 -27 53 C-27.94622159 54.37202131 -28.95884159 55.69855198 -30 57 C-30.70125 58.0725 -31.4025 59.145 -32.125 60.25 C-33.053125 61.61125 -33.053125 61.61125 -34 63 C-34.33 63 -34.66 63 -35 63 C-34.54624714 56.23282374 -32.59858531 51.12213602 -29.625 45.0625 C-29.18091797 44.14662109 -28.73683594 43.23074219 -28.27929688 42.28710938 C-21.39786639 28.41838025 -12.6016994 16.09169234 -3 4 C-2.4328125 3.22269531 -1.865625 2.44539063 -1.28125 1.64453125 C-0.8584375 1.10183594 -0.435625 0.55914062 0 0 Z " fill="#4A75BE" transform="translate(58,78)"/>
<path d="M0 0 C2.31 0 4.62 0 7 0 C7 0.99 7 1.98 7 3 C7.721875 2.938125 8.44375 2.87625 9.1875 2.8125 C12.59289116 3.03952608 14.09605681 4.24412738 17 6 C21.02194842 7.40300526 24.60419866 8 28.875 8 C29.90625 8 30.9375 8 32 8 C32.66 8.66 33.32 9.32 34 10 C36.06874034 10.6425235 36.06874034 10.6425235 38 11 C38 10.34 38 9.68 38 9 C40.475 9.495 40.475 9.495 43 10 C42.34 10.66 41.68 11.32 41 12 C46.47196785 13.86544358 51.66128205 14.39950166 57.42578125 14.75390625 C60 15 60 15 62 16 C64.35308979 16.07418316 66.7083337 16.08337438 69.0625 16.0625 C69.76842285 16.05871338 70.4743457 16.05492676 71.20166016 16.05102539 C74.21996251 16.03473361 77.23812901 16.0069246 80.25634766 15.97949219 C88.56881106 15.91038836 96.73531072 15.95051565 105 17 C105 17.33 105 17.66 105 18 C68.97029722 22.3645946 33.15227377 16.50411977 0 2 C0 1.34 0 0.68 0 0 Z " fill="#78A2E5" transform="translate(128,392)"/>
<path d="M0 0 C0.76986237 -0.00233643 1.53972473 -0.00467285 2.33291626 -0.00708008 C14.83284289 -0.02137703 26.89352791 0.85117618 39.1875 3.25 C38.1975 3.58 37.2075 3.91 36.1875 4.25 C36.1875 4.91 36.1875 5.57 36.1875 6.25 C35.59324219 6.11722656 34.99898438 5.98445312 34.38671875 5.84765625 C28.76935253 4.65079906 23.26450762 3.90003363 17.53515625 3.49609375 C15.1875 3.25 15.1875 3.25 12.1875 2.25 C10.38669782 2.22270169 8.58455805 2.25986621 6.78515625 2.3359375 C5.73005859 2.37976563 4.67496094 2.42359375 3.58789062 2.46875 C2.48638672 2.5203125 1.38488281 2.571875 0.25 2.625 C-0.84763672 2.66882813 -1.94527344 2.71265625 -3.07617188 2.7578125 C-9.51297124 3.02806992 -9.51297124 3.02806992 -15.8125 4.25 C-17.29106114 4.29232018 -18.7714017 4.29100099 -20.25 4.25 C-23.61502076 4.21169895 -26.52118377 4.50945385 -29.8125 5.25 C-31.20774392 5.38141576 -32.60367703 5.50559367 -34 5.625 C-39.15245328 6.15412399 -43.91182893 7.62326367 -48.8125 9.25 C-49.8025 8.26 -50.7925 7.27 -51.8125 6.25 C-47.85582741 5.42927306 -43.89690137 4.61995095 -39.9375 3.8125 C-38.27460938 3.46735352 -38.27460938 3.46735352 -36.578125 3.11523438 C-24.32755523 0.62908933 -12.46621772 0.01724304 0 0 Z " fill="#6195E5" transform="translate(209.8125,9.75)"/>
<path d="M0 0 C1.9400364 2.91005459 2.50268746 4.53502661 3.21875 7.875 C3.42798096 8.85041748 3.63721191 9.82583496 3.8527832 10.83081055 C4.06636475 11.87664307 4.27994629 12.92247559 4.5 14 C4.72067139 15.07999268 4.94134277 16.15998535 5.16870117 17.27270508 C10.71890184 45.2924332 10.70504087 74.13035187 4 102 C3.67 102 3.34 102 3 102 C3.96355353 84.14350797 3.96355353 84.14350797 5 76 C5.66 76 6.32 76 7 76 C7 63.46 7 50.92 7 38 C6.34 38 5.68 38 5 38 C5 33.05 5 28.1 5 23 C4.01 22.67 3.02 22.34 2 22 C2.33 21.34 2.66 20.68 3 20 C3.039992 18.00039988 3.04346799 15.99952758 3 14 C2.34 14 1.68 14 1 14 C0.67 9.38 0.34 4.76 0 0 Z " fill="#7CA5E1" transform="translate(402,154)"/>
<path d="M0 0 C7.49356066 0.90439525 7.49356066 0.90439525 10.69775391 1.50927734 C16.99459167 2.44500438 23.39454463 2.19379747 29.75 2.1875 C30.85600052 2.18858765 30.85600052 2.18858765 31.98434448 2.18969727 C43.09422423 2.1884864 54.01126971 1.73099549 65 0 C63.2421875 4.8359375 63.2421875 4.8359375 61.0625 6.3125 C59 7 59 7 56 7 C55.505 5.515 55.505 5.515 55 4 C52.87465341 4.14069196 50.74972471 4.28770921 48.625 4.4375 C46.84996094 4.55931641 46.84996094 4.55931641 45.0390625 4.68359375 C42.08481099 4.81084936 42.08481099 4.81084936 40 6 C37.42636176 6.09909819 34.88565909 6.13892151 32.3125 6.125 C31.61705078 6.12886719 30.92160156 6.13273437 30.20507812 6.13671875 C25.70959931 6.12832383 21.45621233 5.63954899 17 5 C13.85032875 5.00759872 10.72072722 5.12358253 7.57421875 5.2578125 C6.72472656 5.17273438 5.87523437 5.08765625 5 5 C4.34 4.01 3.68 3.02 3 2 C2.01 1.34 1.02 0.68 0 0 Z " fill="#0B2145" transform="translate(296,341)"/>
<path d="M0 0 C0 0.66 0 1.32 0 2 C-0.99 2 -1.98 2 -3 2 C-3 2.66 -3 3.32 -3 4 C-3.763125 4.391875 -4.52625 4.78375 -5.3125 5.1875 C-8.86511146 7.58344726 -9.62304279 10.01407124 -11 14 C-11 14.66 -11 15.32 -11 16 C-10.34 16.33 -9.68 16.66 -9 17 C-11.97 17 -14.94 17 -18 17 C-18 16.34 -18 15.68 -18 15 C-19.94520203 16.40859458 -21.77303342 17.7631653 -23.4375 19.5 C-25.42326661 21.40633594 -27.62810877 22.61157587 -30 24 C-30.66 24.53625 -31.32 25.0725 -32 25.625 C-34.32311419 27.22214101 -36.23084393 27.61539499 -39 28 C-37.3572764 26.30428532 -35.69119819 24.6469049 -34 23 C-33.43796875 22.44183594 -32.8759375 21.88367188 -32.296875 21.30859375 C-25.6932221 15.08192104 -9.46496631 0 0 0 Z " fill="#719FEA" transform="translate(113,35)"/>
<path d="M0 0 C0.99 0.33 1.98 0.66 3 1 C2.67 1.66 2.34 2.32 2 3 C2.66 3.33 3.32 3.66 4 4 C3.01 4.66 2.02 5.32 1 6 C0.35872655 8.38770407 0.35872655 8.38770407 0 11 C-0.49007098 12.44091522 -0.9905259 13.87833042 -1.5 15.3125 C-3.18706768 20.72585795 -3.48833238 26.01457828 -3.70898438 31.6418457 C-3.91524749 36.83049498 -3.91524749 36.83049498 -5 39 C-6.1515258 41.92753114 -6.1515258 41.92753114 -6 44.875 C-6 48 -6 48 -6.5 50.4375 C-7.12762675 53.65408707 -7.0640909 56.73136435 -7 60 C-7.99 60.495 -7.99 60.495 -9 61 C-9.81331633 39.80059715 -7.08847136 20.01621627 0 0 Z " fill="#1F3254" transform="translate(19,148)"/>
<path d="M0 0 C6.97279629 0.56381874 13.26294877 1.99608248 19.9375 4.0625 C21.43071777 4.52124512 21.43071777 4.52124512 22.95410156 4.98925781 C29.54198183 7.07440292 35.93159807 9.45307324 42.25 12.25 C42.9937085 12.5787915 43.73741699 12.90758301 44.50366211 13.24633789 C47.88361503 14.80524521 50.47633818 16.27705129 53 19 C51.02 19.66 49.04 20.32 47 21 C47.495 19.515 47.495 19.515 48 18 C46.9275 18.04125 45.855 18.0825 44.75 18.125 C41.34252515 18.0114175 39.79260369 17.78726636 37 16 C37 15.34 37 14.68 37 14 C35.02 14.33 33.04 14.66 31 15 C30.67 13.35 30.34 11.7 30 10 C27.69 9.67 25.38 9.34 23 9 C23 8.34 23 7.68 23 7 C21.35 7.66 19.7 8.32 18 9 C17.34 8.01 16.68 7.02 16 6 C12.64717651 4.32358826 10.83880578 4 7 4 C7 3.34 7 2.68 7 2 C4.69 1.67 2.38 1.34 0 1 C0 0.67 0 0.34 0 0 Z " fill="#3A4352" transform="translate(249,14)"/>
<path d="M0 0 C3.60830014 1.34022577 6.7085883 3.02020349 10 5 C23.63458609 12.63434689 43.23537877 9.86592301 58 7 C58 7.99 58 8.98 58 10 C43.04466224 13.67324085 22.4999752 14.81735532 8 9 C5.828125 7.015625 5.828125 7.015625 4 5 C3.01 4.34 2.02 3.68 1 3 C0.67 2.01 0.34 1.02 0 0 Z " fill="#7FB0F9" transform="translate(258,231)"/>
<path d="M0 0 C0 0.66 0 1.32 0 2 C-1.58544922 3.1574707 -1.58544922 3.1574707 -3.8046875 4.42578125 C-5.01499634 5.1233252 -5.01499634 5.1233252 -6.24975586 5.83496094 C-7.11608643 6.32254883 -7.98241699 6.81013672 -8.875 7.3125 C-9.74455322 7.8065332 -10.61410645 8.30056641 -11.51000977 8.80957031 C-14.00081094 10.21718156 -16.49867574 11.61119404 -19 13 C-20.10472656 13.61746094 -21.20945312 14.23492187 -22.34765625 14.87109375 C-28.41481137 18.10141917 -28.41481137 18.10141917 -31.25390625 17.609375 C-31.83011719 17.40828125 -32.40632813 17.2071875 -33 17 C-32.67 16.34 -32.34 15.68 -32 15 C-32.66 15 -33.32 15 -34 15 C-34 13.35 -34 11.7 -34 10 C-33.0925 10.309375 -32.185 10.61875 -31.25 10.9375 C-28.83436662 11.7272263 -26.47219715 12.42949297 -24 13 C-23.34 12.01 -22.68 11.02 -22 10 C-21.175 9.731875 -20.35 9.46375 -19.5 9.1875 C-16.66788691 8.19968602 -16.66788691 8.19968602 -15.875 4.9375 C-15.58625 3.968125 -15.2975 2.99875 -15 2 C-14.01 1.67 -13.02 1.34 -12 1 C-12.33 2.32 -12.66 3.64 -13 5 C-12.01 4.01 -11.02 3.02 -10 2 C-10 2.66 -10 3.32 -10 4 C-9.44570313 3.71125 -8.89140625 3.4225 -8.3203125 3.125 C-7.23363281 2.568125 -7.23363281 2.568125 -6.125 2 C-5.40570313 1.62875 -4.68640625 1.2575 -3.9453125 0.875 C-2 0 -2 0 0 0 Z " fill="#172D52" transform="translate(323,375)"/>
<path d="M0 0 C1.625 1.5 1.625 1.5 3 4 C2.65955497 6.83163803 1.86771089 9.25986036 1 12 C0.236875 12.020625 -0.52625 12.04125 -1.3125 12.0625 C-4.37841049 12.79236588 -4.37841049 12.79236588 -5.8125 16.375 C-7.15565406 19.83939641 -7.15565406 19.83939641 -7 23 C-7.94622159 24.37202131 -8.95884159 25.69855198 -10 27 C-10.70125 28.0725 -11.4025 29.145 -12.125 30.25 C-13.053125 31.61125 -13.053125 31.61125 -14 33 C-14.33 33 -14.66 33 -15 33 C-14.52232115 26.62371115 -12.91108304 21.78944848 -10.125 16.0625 C-9.77308594 15.29615234 -9.42117187 14.52980469 -9.05859375 13.74023438 C-7.06360785 9.55373051 -7.06360785 9.55373051 -6 8 C-5.01 7.67 -4.02 7.34 -3 7 C-1.28432339 3.49705129 -1.28432339 3.49705129 0 0 Z " fill="#3561B1" transform="translate(38,108)"/>
<path d="M0 0 C-1.03125 0.433125 -2.0625 0.86625 -3.125 1.3125 C-5.50769502 2.32203544 -7.71623802 3.38796226 -10 4.625 C-13 6 -13 6 -16.75 6.4375 C-17.8225 6.623125 -18.895 6.80875 -20 7 C-21.25827123 8.84982472 -21.25827123 8.84982472 -22 11 C-24.125 12.75 -24.125 12.75 -26 14 C-26 13.01 -26 12.02 -26 11 C-26.95261719 11.433125 -27.90523437 11.86625 -28.88671875 12.3125 C-30.15343115 12.87548329 -31.42037035 13.43795648 -32.6875 14 C-33.31333984 14.28617188 -33.93917969 14.57234375 -34.58398438 14.8671875 C-38.19992767 16.45744528 -41.04190849 17.36326652 -45 17 C-36.19434536 9.72185688 -23.81912079 5.7395108 -13.1875 1.9375 C-12.33414063 1.62651367 -11.48078125 1.31552734 -10.6015625 0.99511719 C-9.39693359 0.57794434 -9.39693359 0.57794434 -8.16796875 0.15234375 C-7.45922607 -0.09523682 -6.7504834 -0.34281738 -6.02026367 -0.59790039 C-3.6952691 -1.06065158 -2.23135862 -0.73376467 0 0 Z " fill="#6295E9" transform="translate(158,18)"/>
<path d="M0 0 C4.30356619 4.30356619 4.38835873 11.18940795 5 17 C6.32 16.67 7.64 16.34 9 16 C9 17.32 9 18.64 9 20 C8.34 20 7.68 20 7 20 C6.67 22.31 6.34 24.62 6 27 C8.97065509 26.65772428 8.97065509 26.65772428 12 26 C12.33 25.34 12.66 24.68 13 24 C12.40075776 28.19469571 11.42500059 32.00999834 10 36 C9.34 36 8.68 36 8 36 C-0.65284504 9.35744552 -0.65284504 9.35744552 0 0 Z " fill="#192640" transform="translate(12,240)"/>
<path d="M0 0 C4.04022843 3.90555415 7.6896957 8.02933445 11.25 12.375 C12.06210937 13.32632813 12.06210937 13.32632813 12.890625 14.296875 C16.37161028 18.56108197 17.74313744 21.47745492 18 27 C17.01 27 16.02 27 15 27 C14.67 27.66 14.34 28.32 14 29 C13.34 29 12.68 29 12 29 C12 26.36 12 23.72 12 21 C11.34 20.67 10.68 20.34 10 20 C10 19.01 10 18.02 10 17 C9.67 16.01 9.34 15.02 9 14 C8.030625 13.731875 7.06125 13.46375 6.0625 13.1875 C3 12 3 12 1.6875 9.125 C1.460625 8.09375 1.23375 7.0625 1 6 C0.79375 5.2575 0.5875 4.515 0.375 3.75 C0 2 0 2 0 0 Z " fill="#285092" transform="translate(358,75)"/>
<path d="M0 0 C-4.31272558 4.05055382 -8.3209439 7.13751386 -14 9 C-14.98742187 9.32871094 -15.97484375 9.65742188 -16.9921875 9.99609375 C-25.93735672 12.7648366 -34.70786953 14.08285465 -44 15 C-43.67 14.34 -43.34 13.68 -43 13 C-40.77719886 12.26600016 -38.51876701 11.63895203 -36.25 11.0625 C-35.57839844 10.88992676 -34.90679687 10.71735352 -34.21484375 10.53955078 C-28.77509555 9.15528341 -23.307309 7.89563816 -17.83203125 6.66015625 C-14.5134484 5.88658314 -11.26099388 4.98588187 -8 4 C-8 3.34 -8 2.68 -8 2 C-3.61016949 -1.20338983 -3.61016949 -1.20338983 0 0 Z " fill="#1A57BB" transform="translate(196,173)"/>
<path d="M0 0 C6.07350673 3.17478761 7.58305072 6.76628498 10 13 C10.70527473 14.45981498 11.41358459 15.91816771 12.125 17.375 C14.62819777 23.03699496 17.09369099 29.7811696 15.0390625 35.828125 C14.69617188 36.54484375 14.35328125 37.2615625 14 38 C11.5395132 35.5395132 11.69041728 33.90832454 11.33984375 30.5625 C10.9200403 27.39708548 10.29737798 24.30900606 9.625 21.1875 C9.39039063 20.08792969 9.15578125 18.98835938 8.9140625 17.85546875 C7.98165194 14.94268193 7.21820375 13.97503168 5 12 C4.33333333 10 3.66666667 8 3 6 C2.01904252 4.98131338 1.02297922 3.97648017 0 3 C0 2.01 0 1.02 0 0 Z " fill="#76A8F9" transform="translate(191,113)"/>
<path d="M0 0 C5.36996587 1.09219645 9.0056508 2.0056508 13 6 C13 6.66 13 7.32 13 8 C13.721875 8.28875 14.44375 8.5775 15.1875 8.875 C16.115625 9.24625 17.04375 9.6175 18 10 C18.825 10.268125 19.65 10.53625 20.5 10.8125 C23.66732825 12.31698092 25.5678268 14.50382225 28 17 C28.99 17.33 29.98 17.66 31 18 C35.21360207 21.75807752 39.05617125 26.1644325 42 31 C42 31.99 42 32.98 42 34 C36.13372957 30.50520059 36.13372957 30.50520059 35.4375 27.875 C35.293125 27.25625 35.14875 26.6375 35 26 C34.175 25.67 33.35 25.34 32.5 25 C31.675 24.67 30.85 24.34 30 24 C29.87625 23.38253906 29.7525 22.76507813 29.625 22.12890625 C28.73151131 19.08546042 27.20513126 18.53043121 24.5 16.9375 C23.52289063 16.34453125 22.54578125 15.7515625 21.5390625 15.140625 C20.98637695 14.80869141 20.43369141 14.47675781 19.86425781 14.13476562 C16.16182612 11.88111155 12.52111895 9.53072174 8.875 7.1875 C7.73708008 6.46711548 7.73708008 6.46711548 6.57617188 5.73217773 C5.86783203 5.27786377 5.15949219 4.8235498 4.4296875 4.35546875 C3.79272949 3.94965576 3.15577148 3.54384277 2.49951172 3.12573242 C1 2 1 2 0 0 Z " fill="#649AF3" transform="translate(140,71)"/>
<path d="M0 0 C1.71896484 0.24447876 1.71896484 0.24447876 3.47265625 0.49389648 C7.81300603 1.03435488 12.06855595 1.12878923 16.4375 1.09765625 C17.20304199 1.0962413 17.96858398 1.09482635 18.75732422 1.09336853 C21.17159142 1.08782853 23.58576144 1.07528779 26 1.0625 C27.64973823 1.05747723 29.29947794 1.05291569 30.94921875 1.04882812 C34.96618255 1.03787886 38.98307487 1.02065666 43 1 C39.54941314 3.30039124 37.05904498 3.4738275 33 4 C32.67 4.33 32.34 4.66 32 5 C28.62398251 5.13239284 25.52462031 5.10257939 22.203125 4.453125 C17.49296439 3.7868096 13.04319327 4.49774323 8.33984375 5.0390625 C4.58606171 4.99515862 2.91141242 4.3225256 0 2 C0 1.34 0 0.68 0 0 Z " fill="#5991EC" transform="translate(272,241)"/>
<path d="M0 0 C0.66 0 1.32 0 2 0 C2 0.99 2 1.98 2 3 C2.66 3 3.32 3 4 3 C4.33 4.32 4.66 5.64 5 7 C5.99 7 6.98 7 8 7 C8.66 7.33 9.32 7.66 10 8 C10 8.66 10 9.32 10 10 C10.66 10.33 11.32 10.66 12 11 C11.34 11 10.68 11 10 11 C11.1380632 17.56457652 11.1380632 17.56457652 13.1875 23.875 C14.15674146 26.4099392 13.74953181 27.45903399 13 30 C7.86937002 20.19705935 3.42356584 10.53404874 0 0 Z " fill="#6697E8" transform="translate(20,276)"/>
<path d="M0 0 C-0.78375 0.763125 -1.5675 1.52625 -2.375 2.3125 C-5.07257717 4.90891805 -5.07257717 4.90891805 -7 8 C-8.65532623 9.01866229 -10.32260138 10.01810813 -12 11 C-13.75149165 12.58245275 -13.75149165 12.58245275 -15 14 C-15.33 13.01 -15.66 12.02 -16 11 C-17.98 12.32 -19.96 13.64 -22 15 C-22.66 14.67 -23.32 14.34 -24 14 C-23.67 12.02 -23.34 10.04 -23 8 C-22.13375 8.0825 -21.2675 8.165 -20.375 8.25 C-16.22350811 7.94248208 -14.36943225 6.34395287 -11 4 C-9.68 4 -8.36 4 -7 4 C-7 3.01 -7 2.02 -7 1 C-3.375 -1.125 -3.375 -1.125 0 0 Z " fill="#538CE9" transform="translate(407,193)"/>
<path d="M0 0 C1.88549805 0.15527344 1.88549805 0.15527344 4 1 C6.37529804 4.14929798 8.02119187 7.74192453 9.8125 11.25 C10.5849707 12.68279297 10.5849707 12.68279297 11.37304688 14.14453125 C11.85451172 15.07136719 12.33597656 15.99820313 12.83203125 16.953125 C13.27264893 17.80036133 13.7132666 18.64759766 14.16723633 19.52050781 C15.14558435 22.43346662 14.8478122 24.08558451 14 27 C12 23.25 12 23.25 12 21 C9.525 20.01 9.525 20.01 7 19 C7.33 18.01 7.66 17.02 8 16 C6.58044077 11.10689351 6.58044077 11.10689351 2.9375 7.9375 C1.9784375 7.4734375 1.9784375 7.4734375 1 7 C-0.25 3.875 -0.25 3.875 -1 1 C-0.67 0.67 -0.34 0.34 0 0 Z " fill="#3A69B2" transform="translate(377,103)"/>
<path d="M0 0 C37.45176103 -0.61916858 37.45176103 -0.61916858 56 3 C55.01 3.33 54.02 3.66 53 4 C53 4.66 53 5.32 53 6 C52.40574219 5.86722656 51.81148437 5.73445312 51.19921875 5.59765625 C45.54880154 4.39375709 40.01351183 3.64724727 34.25 3.24609375 C32 3 32 3 30 2 C27.75025839 1.84504237 25.49628464 1.74989072 23.2421875 1.68359375 C22.57913605 1.66281265 21.91608459 1.64203156 21.23294067 1.62062073 C19.11373306 1.55520769 16.994401 1.49627895 14.875 1.4375 C13.43878919 1.39430691 12.00259098 1.35069236 10.56640625 1.30664062 C7.04440406 1.19953501 3.52226175 1.09824425 0 1 C0 0.67 0 0.34 0 0 Z " fill="#7EA6E7" transform="translate(193,10)"/>
<path d="M0 0 C0.33 0.66 0.66 1.32 1 2 C1.66 2 2.32 2 3 2 C6.07722169 12.72681234 6.20782491 23.19373819 5.875 34.25 C5.85857452 34.94602325 5.84214905 35.64204651 5.82522583 36.35916138 C5.77337008 38.37017638 5.69569836 40.38047415 5.6171875 42.390625 C5.57190918 43.56657227 5.52663086 44.74251953 5.47998047 45.95410156 C4.97094373 49.18438759 4.18842512 50.62366133 2 53 C2.06928711 52.34225586 2.13857422 51.68451172 2.20996094 51.00683594 C3.70516681 35.90046766 4.27476562 20.55633135 0.65625 5.73046875 C0 3 0 3 0 0 Z " fill="#093276" transform="translate(278,64)"/>
<path d="M0 0 C2.59351135 -0.41990184 4.39620222 -0.35057541 6.69287109 0.98291016 C8.57594528 2.37116944 10.38612193 3.81982204 12.1875 5.3125 C12.81591797 5.81201172 13.44433594 6.31152344 14.09179688 6.82617188 C16.94138031 9.1271724 18.94030768 10.91046152 21 14 C21 14.99 21 15.98 21 17 C19.35 17.33 17.7 17.66 16 18 C16 15 16 15 17 13 C16.34 12.67 15.68 12.34 15 12 C15.33 11.67 15.66 11.34 16 11 C15.05125 10.87625 14.1025 10.7525 13.125 10.625 C10 10 10 10 8 8 C7.67 7.01 7.34 6.02 7 5 C6.34 5 5.68 5 5 5 C5 4.34 5 3.68 5 3 C2.03 2.505 2.03 2.505 -1 2 C-0.67 1.34 -0.34 0.68 0 0 Z " fill="#1F375E" transform="translate(321,46)"/>
<path d="M0 0 C0.33 0.66 0.66 1.32 1 2 C0.67 2.99 0.34 3.98 0 5 C0.38932856 7.14255793 0.38932856 7.14255793 1 9 C1.78375 8.835 2.5675 8.67 3.375 8.5 C6 8 6 8 8 8 C7.67 10.97 7.34 13.94 7 17 C5.68 17 4.36 17 3 17 C1.36283687 14.87885799 0.06398392 12.93177178 -1.25 10.625 C-1.79527344 9.72007812 -1.79527344 9.72007812 -2.3515625 8.796875 C-5 4.31643562 -5 4.31643562 -5 2 C-4.360625 1.855625 -3.72125 1.71125 -3.0625 1.5625 C-1.02454854 1.18992819 -1.02454854 1.18992819 0 0 Z " fill="#759FE7" transform="translate(39,304)"/>
<path d="M0 0 C0.33 0.66 0.66 1.32 1 2 C4.02934491 2.65772428 4.02934491 2.65772428 7 3 C7 3.66 7 4.32 7 5 C5.35 5 3.7 5 2 5 C2 4.34 2 3.68 2 3 C0.05479797 4.40859458 -1.77303342 5.7631653 -3.4375 7.5 C-5.42326661 9.40633594 -7.62810877 10.61157587 -10 12 C-10.66 12.53625 -11.32 13.0725 -12 13.625 C-14.32311419 15.22214101 -16.23084393 15.61539499 -19 16 C-15.93697968 12.83817257 -12.7646092 9.82895356 -9.5 6.875 C-8.7678125 6.21242188 -8.035625 5.54984375 -7.28125 4.8671875 C-4.96659459 2.9726579 -2.59889842 1.47331918 0 0 Z " fill="#80A5E1" transform="translate(93,47)"/>
<path d="M0 0 C-0.375 1.9375 -0.375 1.9375 -1 4 C-1.99 4.495 -1.99 4.495 -3 5 C-3.99 6.485 -3.99 6.485 -5 8 C-5.7425 8.12375 -6.485 8.2475 -7.25 8.375 C-12.18125733 9.4957403 -15.26660096 12.89990144 -18 17 C-18.66 16.67 -19.32 16.34 -20 16 C-19.43835172 12.65557889 -18.59457001 11.28516101 -15.91015625 9.23828125 C-15.29076172 8.75939453 -14.67136719 8.28050781 -14.03320312 7.78710938 C-13.38287109 7.30048828 -12.73253906 6.81386719 -12.0625 6.3125 C-11.41603516 5.81427734 -10.76957031 5.31605469 -10.10351562 4.80273438 C-3.8280296 0 -3.8280296 0 0 0 Z " fill="#4D84DC" transform="translate(73,207)"/>
<path d="M0 0 C0 0.66 0 1.32 0 2 C-1.65 2.66 -3.3 3.32 -5 4 C-4.938125 4.94875 -4.87625 5.8975 -4.8125 6.875 C-4.874375 7.90625 -4.93625 8.9375 -5 10 C-8 12 -8 12 -11 12 C-12.33981486 12.3062434 -13.67511887 12.63451555 -15 13 C-15.33 14.32 -15.66 15.64 -16 17 C-17.32 16.67 -18.64 16.34 -20 16 C-17.75831239 13.70007511 -15.50527417 11.41159742 -13.25 9.125 C-12.29867187 8.14853516 -12.29867187 8.14853516 -11.328125 7.15234375 C-10.4 6.21455078 -10.4 6.21455078 -9.453125 5.2578125 C-8.88754883 4.6817627 -8.32197266 4.10571289 -7.73925781 3.51220703 C-5.34434469 1.42993697 -3.22329119 0 0 0 Z " fill="#6593D8" transform="translate(79,61)"/>
<path d="M0 0 C4.45831922 -0.02933699 8.91661318 -0.04691123 13.375 -0.0625 C14.62667969 -0.07087891 15.87835938 -0.07925781 17.16796875 -0.08789062 C24.1800701 -0.10624691 31.04232614 0.09958321 38 1 C38 1.33 38 1.66 38 2 C29.94526218 3.03155536 21.9868879 3.11895318 13.875 3.0625 C12.01101562 3.05573242 12.01101562 3.05573242 10.109375 3.04882812 C7.07286498 3.03714924 4.03645912 3.0207714 1 3 C0.67 2.01 0.34 1.02 0 0 Z " fill="#5D85C3" transform="translate(195,408)"/>
<path d="M0 0 C0.33 0.66 0.66 1.32 1 2 C0.01 2.8971875 0.01 2.8971875 -1 3.8125 C-7.10050353 9.91300353 -11.95435739 17.41442011 -16 25 C-16.33 25 -16.66 25 -17 25 C-16.505 20.545 -16.505 20.545 -16 16 C-14.68 15.67 -13.36 15.34 -12 15 C-12 13.35 -12 11.7 -12 10 C-11.34 10 -10.68 10 -10 10 C-9.01 8.02 -8.02 6.04 -7 4 C-6.34 4.33 -5.68 4.66 -5 5 C-3.35 3.35 -1.7 1.7 0 0 Z " fill="#03193D" transform="translate(50,222)"/>
<path d="M0 0 C0.66 0 1.32 0 2 0 C2.33 1.32 2.66 2.64 3 4 C3.66 4 4.32 4 5 4 C5.268125 4.598125 5.53625 5.19625 5.8125 5.8125 C6.87534145 8.01738561 6.87534145 8.01738561 8.5 9.5 C10.20060183 11.20060183 10.98407947 12.83270287 12 15 C12.99 16.485 12.99 16.485 14 18 C14.1953125 20.26171875 14.1953125 20.26171875 14.125 22.6875 C14.10695313 23.49574219 14.08890625 24.30398437 14.0703125 25.13671875 C14.03550781 26.05904297 14.03550781 26.05904297 14 27 C13.67 26.34 13.34 25.68 13 25 C12.34 25 11.68 25 11 25 C10.70867187 24.20078125 10.41734375 23.4015625 10.1171875 22.578125 C7.20663333 14.78003646 3.86444562 7.37033443 0 0 Z " fill="#052555" transform="translate(266,39)"/>
<path d="M0 0 C0.99 0.33 1.98 0.66 3 1 C2.67 1.66 2.34 2.32 2 3 C2.66 3.33 3.32 3.66 4 4 C3.01 4.66 2.02 5.32 1 6 C0.35461648 8.36597722 0.35461648 8.36597722 0 11 C-0.4830666 12.60934687 -0.98339383 14.21360389 -1.5 15.8125 C-2.85785931 20.23051054 -3.57435962 24.40308386 -4 29 C-6.97747726 24.5337841 -6.0086487 21.13780433 -5 16 C-3.5461291 10.60120618 -1.7813175 5.2979406 0 0 Z " fill="#294880" transform="translate(19,148)"/>
<path d="M0 0 C3.33510304 1.11170101 4.10364173 1.99468142 6.3125 4.625 C7.22128906 5.69621094 7.22128906 5.69621094 8.1484375 6.7890625 C8.75945312 7.51867187 9.37046875 8.24828125 10 9 C11.14453013 10.33445216 12.29025017 11.66788527 13.4375 13 C14.283125 13.99 15.12875 14.98 16 16 C15.34 16.66 14.68 17.32 14 18 C14 17.34 14 16.68 14 16 C12.35 16.66 10.7 17.32 9 18 C9.33 15.69 9.66 13.38 10 11 C9.36191406 10.81824219 8.72382813 10.63648438 8.06640625 10.44921875 C7.24011719 10.19785156 6.41382813 9.94648438 5.5625 9.6875 C4.73878906 9.44386719 3.91507813 9.20023437 3.06640625 8.94921875 C2.38449219 8.63597656 1.70257813 8.32273437 1 8 C0.03601353 5.1080406 0 3.0005625 0 0 Z " fill="#083479" transform="translate(240,302)"/>
<path d="M0 0 C2.31 0 4.62 0 7 0 C7 0.99 7 1.98 7 3 C7.721875 2.938125 8.44375 2.87625 9.1875 2.8125 C12 3 12 3 14.125 4.3125 C18.44780418 6.8497981 23.16031249 7.80491079 28 9 C25.67976892 10.46338776 24.52477859 11.09045526 21.7734375 10.61621094 C20.98195312 10.32520508 20.19046875 10.03419922 19.375 9.734375 C18.06789062 9.26451172 18.06789062 9.26451172 16.734375 8.78515625 C15.83203125 8.44355469 14.9296875 8.10195313 14 7.75 C13.09765625 7.42386719 12.1953125 7.09773438 11.265625 6.76171875 C7.39775316 5.34845789 3.6588324 3.89833256 0 2 C0 1.34 0 0.68 0 0 Z " fill="#90B2EC" transform="translate(128,392)"/>
<path d="M0 0 C7.43350743 0.89714745 7.43350743 0.89714745 10.75390625 1.5 C13.95486518 1.99304783 17.0382084 2.20429435 20.2734375 2.31640625 C21.42714844 2.35830078 22.58085937 2.40019531 23.76953125 2.44335938 C24.95933594 2.48267578 26.14914062 2.52199219 27.375 2.5625 C29.19451172 2.62727539 29.19451172 2.62727539 31.05078125 2.69335938 C34.03375032 2.79905513 37.01679742 2.90115321 40 3 C40 3.33 40 3.66 40 4 C35.85428128 4.16959963 31.70840984 4.33514383 27.5625 4.5 C26.39783203 4.54769531 25.23316406 4.59539062 24.03320312 4.64453125 C20.68913571 4.77640997 17.34480715 4.88879816 14 5 C12.62110596 5.06767578 12.62110596 5.06767578 11.21435547 5.13671875 C8.77734375 5.21875 8.77734375 5.21875 5 5 C4.34 4.01 3.68 3.02 3 2 C2.01 1.34 1.02 0.68 0 0 Z " fill="#0E2B5B" transform="translate(296,341)"/>
<path d="M0 0 C0.33 0 0.66 0 1 0 C1.02721831 3.0000624 1.04694378 5.99987256 1.0625 9 C1.07087891 9.83917969 1.07925781 10.67835938 1.08789062 11.54296875 C1.10824033 16.79319339 0.76368207 21.80455662 0 27 C-0.66 26.67 -1.32 26.34 -2 26 C-2.05849554 22.79174438 -2.09376162 19.58362767 -2.125 16.375 C-2.15013672 15.01955078 -2.15013672 15.01955078 -2.17578125 13.63671875 C-2.21201643 8.67249848 -1.96444146 4.65588093 0 0 Z " fill="#73A5F9" transform="translate(125,314)"/>
<path d="M0 0 C3.66511911 -0.34094131 5.38952523 -0.49497954 8.3125 1.875 C11.51467159 4.40694963 13.95168138 4.80836116 17.9140625 5.41015625 C20.35754901 6.10110468 21.37440615 7.08966837 23 9 C20.35261084 10.4606285 19.10551666 11 16 11 C15.319375 10.0409375 15.319375 10.0409375 14.625 9.0625 C13.1337227 6.75235447 13.1337227 6.75235447 10.3125 6.25 C9.549375 6.1675 8.78625 6.085 8 6 C8 5.34 8 4.68 8 4 C6.865625 3.71125 5.73125 3.4225 4.5625 3.125 C3.386875 2.75375 2.21125 2.3825 1 2 C0.67 1.34 0.34 0.68 0 0 Z " fill="#5D93EB" transform="translate(104,52)"/>
<path d="M0 0 C0.90064221 2.5217982 1.19407719 3.57303018 0.0625 6.0625 C-0.288125 6.701875 -0.63875 7.34125 -1 8 C-1 8.99 -1 9.98 -1 11 C-1.94622159 12.37202131 -2.95884159 13.69855198 -4 15 C-4.70125 16.0725 -5.4025 17.145 -6.125 18.25 C-6.74375 19.1575 -7.3625 20.065 -8 21 C-8.33 21 -8.66 21 -9 21 C-8.50341703 15.33895411 -7.45489316 11.12325529 -5 6 C-4.01 6 -3.02 6 -2 6 C-1.34 4.02 -0.68 2.04 0 0 Z " fill="#305698" transform="translate(32,120)"/>
<path d="M0 0 C4.34863652 0.56444825 7.17827655 2.15427964 10.8125 4.5625 C12.27623047 5.52349609 12.27623047 5.52349609 13.76953125 6.50390625 C14.50558594 6.99761719 15.24164063 7.49132813 16 8 C15.34 9.65 14.68 11.3 14 13 C13.01 12.67 12.02 12.34 11 12 C11.33 11.34 11.66 10.68 12 10 C10.68 10.33 9.36 10.66 8 11 C8 10.34 8 9.68 8 9 C8.99 8.67 9.98 8.34 11 8 C7.99382731 4.99382731 5.17618402 5.40414684 1 5 C0.67 3.35 0.34 1.7 0 0 Z " fill="#293A56" transform="translate(305,35)"/>
<path d="M0 0 C0.66 0 1.32 0 2 0 C2 1.32 2 2.64 2 4 C1.34 4 0.68 4 0 4 C-0.33 5.65 -0.66 7.3 -1 9 C-1.99 9.33 -2.98 9.66 -4 10 C-4.36548445 11.32488113 -4.6937566 12.66018514 -5 14 C-6.5625 16.25 -6.5625 16.25 -8 18 C-8.78287497 11.89357521 -6.10825151 7.99540421 -3 3 C-2.01 3 -1.02 3 0 3 C0 2.01 0 1.02 0 0 Z " fill="#5183DA" transform="translate(38,241)"/>
<path d="M0 0 C0.33 0.66 0.66 1.32 1 2 C1.66 2.33 2.32 2.66 3 3 C4.26229508 7.47540984 4.26229508 7.47540984 3 10 C-1.12751449 9.39301257 -4.3321148 7.96189209 -8 6 C-8 5.67 -8 5.34 -8 5 C-6.8553125 4.87625 -6.8553125 4.87625 -5.6875 4.75 C-2.47626739 3.85384206 -1.70625501 2.78388975 0 0 Z " fill="#75A3EA" transform="translate(125,383)"/>
<path d="M0 0 C2.31 0 4.62 0 7 0 C6.34 0.66 5.68 1.32 5 2 C3.68 2 2.36 2 1 2 C0.67 2.99 0.34 3.98 0 5 C-2.9140625 6.16796875 -2.9140625 6.16796875 -6.625 7.1875 C-8.43871094 7.70376953 -8.43871094 7.70376953 -10.2890625 8.23046875 C-13.97380617 8.99456823 -17.2493339 9.13980632 -21 9 C-17.91190305 7.23537317 -16.76687864 7 -13 7 C-12.67 6.01 -12.34 5.02 -12 4 C-10 3.25 -10 3.25 -8 3 C-7.67 3.33 -7.34 3.66 -7 4 C-4.66055264 3.71269945 -2.3260857 3.38063221 0 3 C0 2.01 0 1.02 0 0 Z " fill="#6B9FF3" transform="translate(333,233)"/>
<path d="M0 0 C0.66 0.33 1.32 0.66 2 1 C1 4 1 4 -1.14453125 5.203125 C-2.02496094 5.54859375 -2.90539062 5.8940625 -3.8125 6.25 C-4.68519531 6.60578125 -5.55789063 6.9615625 -6.45703125 7.328125 C-9.13641236 8.03604136 -10.43212123 7.9337741 -13 7 C-12.34 7 -11.68 7 -11 7 C-10.979375 6.401875 -10.95875 5.80375 -10.9375 5.1875 C-10 3 -10 3 -6.625 1.25 C-3 0 -3 0 0 0 Z " fill="#193C79" transform="translate(286,392)"/>
<path d="M0 0 C6.09490075 1.25620092 9.43866743 3.59270675 13.875 7.875 C14.45507812 8.40480469 15.03515625 8.93460938 15.6328125 9.48046875 C18.5340359 12.21222816 20.28354654 14.07586095 21 18 C17.58841744 16.86280581 16.88145399 15.95657056 15 13 C15 12.34 15 11.68 15 11 C14.4225 10.731875 13.845 10.46375 13.25 10.1875 C10.94449957 8.97070811 8.97943808 7.69666121 7 6 C7 5.34 7 4.68 7 4 C6.030625 3.71125 5.06125 3.4225 4.0625 3.125 C1 2 1 2 0 0 Z " fill="#104AA7" transform="translate(191,247)"/>
<path d="M0 0 C0.33 0.99 0.66 1.98 1 3 C-0.60387267 4.1254191 -2.20810916 5.25031972 -3.8125 6.375 C-4.70582031 7.00148437 -5.59914062 7.62796875 -6.51953125 8.2734375 C-11.89834025 12.01742739 -11.89834025 12.01742739 -14.1875 11.625 C-14.785625 11.41875 -15.38375 11.2125 -16 11 C-14.948125 10.1646875 -14.948125 10.1646875 -13.875 9.3125 C-11.88169998 7.70919346 -9.92516073 6.05951564 -8 4.375 C-5.31140351 2.24652778 -3.2293421 1.04478715 0 0 Z " fill="#6199F3" transform="translate(162,242)"/>
<path d="M0 0 C0.33 0 0.66 0 1 0 C1.14242369 6.44143487 0.67256996 12.46160714 -0.375 18.8125 C-0.50132812 19.64458984 -0.62765625 20.47667969 -0.7578125 21.33398438 C-1.3918429 25.28716391 -2.06597285 28.45461603 -4 32 C-3.03644647 14.14350797 -3.03644647 14.14350797 -2 6 C-1.34 6 -0.68 6 0 6 C0 4.02 0 2.04 0 0 Z " fill="#709DE4" transform="translate(409,224)"/>
<path d="M0 0 C-3.74830456 2.23456618 -6.782202 3.9455505 -11 5 C-11.4125 5.474375 -11.825 5.94875 -12.25 6.4375 C-15.07046573 8.95577298 -18.3399052 9.2199798 -22 10 C-22 9.01 -22 8.02 -22 7 C-21.30132812 6.73445312 -20.60265625 6.46890625 -19.8828125 6.1953125 C-18.97273438 5.84210938 -18.06265625 5.48890625 -17.125 5.125 C-15.76761719 4.60292969 -15.76761719 4.60292969 -14.3828125 4.0703125 C-11.87782993 3.11469105 -11.87782993 3.11469105 -10 1 C-6.30641529 -0.52561108 -3.81970016 -1.46911544 0 0 Z " fill="#6197EF" transform="translate(356,228)"/>
<path d="M0 0 C0.33 0.66 0.66 1.32 1 2 C3.02463255 2.65213292 3.02463255 2.65213292 5 3 C5.33 5.31 5.66 7.62 6 10 C5.01 10 4.02 10 3 10 C2.67 10.66 2.34 11.32 2 12 C1.34 12 0.68 12 0 12 C0 9.36 0 6.72 0 4 C-0.66 3.67 -1.32 3.34 -2 3 C-1.34 2.01 -0.68 1.02 0 0 Z " fill="#0D46A0" transform="translate(370,92)"/>
<path d="M0 0 C1.796875 0.19140625 1.796875 0.19140625 4 1 C5.703125 3.21484375 5.703125 3.21484375 7.25 5.9375 C7.77078125 6.83339844 8.2915625 7.72929688 8.828125 8.65234375 C10 11 10 11 10 13 C8.02 13.99 8.02 13.99 6 15 C4.75453595 12.50907189 5.2232422 11.58919267 6 9 C3.31158141 6.74754119 1.35358125 5.11786042 -2 4 C-1.34 3.67 -0.68 3.34 0 3 C0 2.01 0 1.02 0 0 Z " fill="#508BE9" transform="translate(260,34)"/>
<path d="M0 0 C0.66 0.33 1.32 0.66 2 1 C2 1.66 2 2.32 2 3 C2.9075 3.103125 3.815 3.20625 4.75 3.3125 C8.10371741 4.02194022 9.42472201 4.85393501 12 7 C13.31836295 7.69580267 14.64791086 8.37224433 16 9 C15.67 9.66 15.34 10.32 15 11 C10.65136348 10.43555175 7.82172345 8.84572036 4.1875 6.4375 C3.21167969 5.79683594 2.23585938 5.15617187 1.23046875 4.49609375 C0.12638672 3.75552734 0.12638672 3.75552734 -1 3 C-0.67 2.01 -0.34 1.02 0 0 Z " fill="#4E84DC" transform="translate(268,324)"/>
<path d="M0 0 C-1.03125 0.433125 -2.0625 0.86625 -3.125 1.3125 C-5.53890792 2.34145873 -7.84448456 3.43052154 -10.1875 4.625 C-14.97560314 6.96585042 -18.65298719 7.10282717 -24 7 C-20.35109873 4.56739916 -16.67266928 3.27918509 -12.5625 1.8125 C-11.79873047 1.52697266 -11.03496094 1.24144531 -10.24804688 0.94726562 C-9.50748047 0.68236328 -8.76691406 0.41746094 -8.00390625 0.14453125 C-7.33174072 -0.09934326 -6.6595752 -0.34321777 -5.96704102 -0.59448242 C-3.6667154 -1.06870867 -2.21127747 -0.72228276 0 0 Z " fill="#77A0E8" transform="translate(158,18)"/>
<path d="M0 0 C0.33 0.66 0.66 1.32 1 2 C0.67 2.99 0.34 3.98 0 5 C2.51083114 3.74458443 2.87125446 2.49936512 4 0 C4.34495895 5.86430216 2.19833414 10.66118853 0 16 C-1.33332095 13.3333581 -0.67102033 11.83319697 0 9 C-0.66 9 -1.32 9 -2 9 C-2.33 9.99 -2.66 10.98 -3 12 C-3 9.36 -3 6.72 -3 4 C-2.34 4 -1.68 4 -1 4 C-0.67 2.68 -0.34 1.36 0 0 Z " fill="#6698E5" transform="translate(131,282)"/>
<path d="M0 0 C0.66 0 1.32 0 2 0 C0.24009216 5.91969002 -2.39694605 11.41634992 -5 17 C-5.33 16.34 -5.66 15.68 -6 15 C-6.66 14.67 -7.32 14.34 -8 14 C-6.80100302 10.9168649 -5.52299523 7.93720508 -4 5 C-3.34 5 -2.68 5 -2 5 C-1.34 3.35 -0.68 1.7 0 0 Z " fill="#01122B" transform="translate(31,247)"/>
<path d="M0 0 C0.66 0.33 1.32 0.66 2 1 C1.25 6.75 1.25 6.75 -1 9 C-1.33 8.34 -1.66 7.68 -2 7 C-2.928125 7.99 -2.928125 7.99 -3.875 9 C-6 11 -6 11 -8 11 C-7 9 -6 7 -5 5 C-4.34 5 -3.68 5 -3 5 C-2.814375 4.0409375 -2.814375 4.0409375 -2.625 3.0625 C-2.41875 2.381875 -2.2125 1.70125 -2 1 C-1.34 0.67 -0.68 0.34 0 0 Z " fill="#4583E6" transform="translate(202,159)"/>
<path d="M0 0 C-3.98865517 1.36943827 -7.98854706 2.69885553 -12 4 C-12.81597656 4.26941406 -13.63195312 4.53882813 -14.47265625 4.81640625 C-16.5625 5.4375 -16.5625 5.4375 -20 6 C-21.71484375 4.53515625 -21.71484375 4.53515625 -23 3 C-19.91979223 2.29795962 -16.83548264 1.61594792 -13.75 0.9375 C-12.87730469 0.73833984 -12.00460938 0.53917969 -11.10546875 0.33398438 C-10.26113281 0.15029297 -9.41679687 -0.03339844 -8.546875 -0.22265625 C-7.77182617 -0.39547119 -6.99677734 -0.56828613 -6.19824219 -0.74633789 C-3.84824709 -1.01751125 -2.23802732 -0.71554459 0 0 Z " fill="#7BA5EA" transform="translate(181,13)"/>
<path d="M0 0 C0.99 0.33 1.98 0.66 3 1 C6.09224276 1.30540669 9.18511719 1.50832311 12.28515625 1.71875 C15 2 15 2 17 3 C18.66194453 3.35613097 20.328451 3.69208308 22 4 C21.67 4.66 21.34 5.32 21 6 C17.53976538 5.55532911 14.08229165 5.09195887 10.625 4.625 C9.64015625 4.49867188 8.6553125 4.37234375 7.640625 4.2421875 C6.69960937 4.11328125 5.75859375 3.984375 4.7890625 3.8515625 C3.91975098 3.73635254 3.05043945 3.62114258 2.15478516 3.50244141 C0 3 0 3 -2 1 C-1.34 0.67 -0.68 0.34 0 0 Z " fill="#7198D2" transform="translate(173,405)"/>
<path d="M0 0 C0 0.99 0 1.98 0 3 C-0.99 3 -1.98 3 -3 3 C-3.33 3.66 -3.66 4.32 -4 5 C-6.06640625 5.6328125 -6.06640625 5.6328125 -8.5625 6.125 C-9.38878906 6.29257813 -10.21507813 6.46015625 -11.06640625 6.6328125 C-11.70449219 6.75398437 -12.34257813 6.87515625 -13 7 C-12.2109375 3.1484375 -12.2109375 3.1484375 -10.3125 1.8125 C-6.94113767 0.62796729 -3.57732939 0 0 0 Z " fill="#4E88E6" transform="translate(87,201)"/>
<path d="M0 0 C0.99 0.33 1.98 0.66 3 1 C-1.62 4.3 -6.24 7.6 -11 11 C-11.66 10.67 -12.32 10.34 -13 10 C-12.67 8.02 -12.34 6.04 -12 4 C-11.13375 4.0825 -10.2675 4.165 -9.375 4.25 C-5.23826161 3.94357493 -3.36272051 2.31654079 0 0 Z " fill="#70A3F4" transform="translate(396,197)"/>
<path d="M0 0 C1.5372978 2.94059853 2.3454461 5.2485024 2.6875 8.5625 C2.77386719 9.32691406 2.86023438 10.09132812 2.94921875 10.87890625 C3 13 3 13 2 16 C2.2784375 17.5159375 2.2784375 17.5159375 2.5625 19.0625 C2.706875 20.031875 2.85125 21.00125 3 22 C2.34 22.66 1.68 23.32 1 24 C-0.29235715 19.08497242 -0.11135517 14.22709898 -0.0625 9.1875 C-0.05798828 8.30384766 -0.05347656 7.42019531 -0.04882812 6.50976562 C-0.03709866 4.33981441 -0.01916495 2.16989828 0 0 Z " fill="#1C2532" transform="translate(10,215)"/>
<path d="M0 0 C0.99 0.33 1.98 0.66 3 1 C3 1.99 3 2.98 3 4 C1.21118264 5.00508801 -0.58114696 6.00392736 -2.375 7 C-3.37273437 7.556875 -4.37046875 8.11375 -5.3984375 8.6875 C-8 10 -8 10 -10 10 C-10 8 -10 8 -8.3125 6.0625 C-6.00176389 4.0015732 -3.68577386 2.52435814 -1 1 C-0.67 0.67 -0.34 0.34 0 0 Z " fill="#5C94EF" transform="translate(380,208)"/>
<path d="M0 0 C0.33 0.66 0.66 1.32 1 2 C-0.0390625 3.9609375 -0.0390625 3.9609375 -1.625 6.375 C-5.136881 11.98744534 -7.60857171 17.84154309 -10 24 C-11.74192316 18.77423051 -9.14644999 13.88377666 -7 9 C-4.89014538 5.78111923 -2.57150048 2.86043311 0 0 Z " fill="#5890E9" transform="translate(143,257)"/>
<path d="M0 0 C6.97669157 -0.39325819 12.51656189 0.36903961 19 3 C18.67 3.66 18.34 4.32 18 5 C15.9375 5.625 15.9375 5.625 14 6 C14 5.01 14 4.02 14 3 C10.37 2.34 6.74 1.68 3 1 C2.67 2.65 2.34 4.3 2 6 C1.34 6 0.68 6 0 6 C0 4.02 0 2.04 0 0 Z " fill="#0F4CAC" transform="translate(170,242)"/>
<path d="M0 0 C4.11518018 4.11518018 4.125 9.40087257 4.125 14.9375 C4.09319918 16.62521475 4.05491533 18.31287918 4 20 C0.10160709 14.15241063 -0.29973431 6.89388918 0 0 Z " fill="#272F3B" transform="translate(12,240)"/>
<path d="M0 0 C3.60555842 1.33920741 6.70914824 3.02548894 10 5 C11.65369357 5.69822617 13.31727014 6.37498605 15 7 C12 9 12 9 8 9 C5.9375 7.125 5.9375 7.125 4 5 C3.01 4.34 2.02 3.68 1 3 C0.67 2.01 0.34 1.02 0 0 Z " fill="#669CF1" transform="translate(258,231)"/>
<path d="M0 0 C0.99 0 1.98 0 3 0 C2.75636719 0.86238281 2.75636719 0.86238281 2.5078125 1.7421875 C0.95914797 8.62778824 2.19049439 16.07583598 3 23 C2.34 23.33 1.68 23.66 1 24 C-0.29235715 19.08497242 -0.11135517 14.22709898 -0.0625 9.1875 C-0.05798828 8.30384766 -0.05347656 7.42019531 -0.04882812 6.50976562 C-0.03709866 4.33981441 -0.01916495 2.16989828 0 0 Z " fill="#74A6F8" transform="translate(124,357)"/>
<path d="M0 0 C-0.33 1.65 -0.66 3.3 -1 5 C-0.34 5.33 0.32 5.66 1 6 C0.67 6.66 0.34 7.32 0 8 C1.32 8 2.64 8 4 8 C4 8.66 4 9.32 4 10 C1.125 9.8125 1.125 9.8125 -2 9 C-3.3125 6.5625 -3.3125 6.5625 -4 4 C-4.33 3.34 -4.66 2.68 -5 2 C-5.33 1.34 -5.66 0.68 -6 0 C-3 -1 -3 -1 0 0 Z " fill="#508EEE" transform="translate(64,337)"/>
<path d="M0 0 C1.9375 0.1875 1.9375 0.1875 4 1 C5.3125 2.8125 5.3125 2.8125 6 5 C5.625 7.25 5.625 7.25 5 9 C3.125 8.375 3.125 8.375 1 7 C-0.25 3.875 -0.25 3.875 -1 1 C-0.67 0.67 -0.34 0.34 0 0 Z " fill="#2C5BAD" transform="translate(377,103)"/>
<path d="M0 0 C0.33 0 0.66 0 1 0 C1 1.98 1 3.96 1 6 C0.34 6 -0.32 6 -1 6 C-1.226875 6.61875 -1.45375 7.2375 -1.6875 7.875 C-3.37929835 10.61410209 -4.99244161 11.05024472 -8 12 C-6.59422879 8.98472262 -4.93873852 6.4052059 -2.9375 3.75 C-2.41027344 3.04359375 -1.88304687 2.3371875 -1.33984375 1.609375 C-0.89769531 1.07828125 -0.45554687 0.5471875 0 0 Z " fill="#577EC3" transform="translate(58,78)"/>
<path d="M0 0 C2.97 0.495 2.97 0.495 6 1 C6.061875 1.928125 6.061875 1.928125 6.125 2.875 C6.41375 3.57625 6.7025 4.2775 7 5 C9.99615946 6.3045656 9.99615946 6.3045656 13 7 C12.34 8.32 11.68 9.64 11 11 C6.86378916 7.6189962 3.18683431 4.33409466 0 0 Z " fill="#729EE6" transform="translate(62,346)"/>
<path d="M0 0 C1.98 0 3.96 0 6 0 C5.67 2.97 5.34 5.94 5 9 C4.01 9.33 3.02 9.66 2 10 C0.68373308 6.38026598 0 3.90432869 0 0 Z " fill="#508FF0" transform="translate(41,312)"/>
<path d="M0 0 C0.268125 0.598125 0.53625 1.19625 0.8125 1.8125 C1.99846146 3.99716585 3.1807485 5.33235279 5 7 C7 9 7 9 7 12 C3.18315774 10.44499019 0.80804268 7.96404505 -2 5 C-1.34 3.35 -0.68 1.7 0 0 Z " fill="#5289E6" transform="translate(250,305)"/>
<path d="M0 0 C0.33 0 0.66 0 1 0 C1.37851209 5.93002267 0.10575375 10.47239641 -2 16 C-2.66 16 -3.32 16 -4 16 C-4.6319296 9.99666876 -2.37544123 5.36595205 0 0 Z " fill="#6094E1" transform="translate(404,253)"/>
<path d="M0 0 C0.33 0 0.66 0 1 0 C1.0871747 3.74985325 1.14045003 7.49944555 1.1875 11.25 C1.22520508 12.84521484 1.22520508 12.84521484 1.26367188 14.47265625 C1.27333984 15.49746094 1.28300781 16.52226563 1.29296875 17.578125 C1.3086792 18.52075195 1.32438965 19.46337891 1.34057617 20.43457031 C1 23 1 23 -2 27 C-1.34 18.09 -0.68 9.18 0 0 Z " fill="#104397" transform="translate(282,90)"/>
<path d="M0 0 C0.66 0 1.32 0 2 0 C1.91245449 1.75091019 1.80426627 3.50079551 1.6875 5.25 C1.62949219 6.22453125 1.57148438 7.1990625 1.51171875 8.203125 C0.95363476 11.25341611 0.03630224 12.70711276 -2 15 C-2.21755666 9.5610835 -2.10428384 5.12919186 0 0 Z " fill="#79ACFA" transform="translate(129,291)"/>
<path d="M0 0 C0.66 0.66 1.32 1.32 2 2 C-1.12132977 4.86121896 -4.07053861 5.68913897 -8.09765625 6.5703125 C-10.20573087 7.01333195 -10.20573087 7.01333195 -13 8 C-13 6.68 -13 5.36 -13 4 C-11.906875 3.855625 -10.81375 3.71125 -9.6875 3.5625 C-6.06877013 3.11711896 -6.06877013 3.11711896 -3 2 C-2.01 2 -1.02 2 0 2 C0 1.34 0 0.68 0 0 Z " fill="#255AAE" transform="translate(87,197)"/>
<path d="M0 0 C-0.33 0.66 -0.66 1.32 -1 2 C-3.70599842 2.47597366 -6.33595404 2.84093629 -9.0625 3.125 C-9.82111328 3.21136719 -10.57972656 3.29773438 -11.36132812 3.38671875 C-13.23996986 3.59939517 -15.11988636 3.80075459 -17 4 C-16 2 -16 2 -13 0.875 C-8.67770912 -0.27521462 -4.44043127 -0.18124209 0 0 Z " fill="#1554B6" transform="translate(169,184)"/>
<path d="M0 0 C0.99 0.33 1.98 0.66 3 1 C1.4114658 5.28904235 -1.43127368 7.32345526 -5 10 C-5.66 10 -6.32 10 -7 10 C-6.65652573 6.79424013 -6.0292146 6.02483241 -3.5 3.875 C-2.675 3.25625 -1.85 2.6375 -1 2 C-0.67 1.34 -0.34 0.68 0 0 Z " fill="#2E3745" transform="translate(338,360)"/>
<path d="M0 0 C5.77372322 2.83458444 11.45217559 5.74366828 17 9 C16.01 9.495 16.01 9.495 15 10 C13.26379633 9.27931168 11.52932088 8.55252881 9.8203125 7.76953125 C7.58953565 6.82647752 5.38919922 6.36199988 3 6 C2.67 4.68 2.34 3.36 2 2 C1.34 2 0.68 2 0 2 C0 1.34 0 0.68 0 0 Z " fill="#052E6A" transform="translate(267,327)"/>
<path d="M0 0 C0.99 0.33 1.98 0.66 3 1 C2.64950425 4.24208567 2.43778819 5.61527704 -0.0625 7.8125 C-0.701875 8.204375 -1.34125 8.59625 -2 9 C-3.32 8.34 -4.64 7.68 -6 7 C-5.34 6.34 -4.68 5.68 -4 5 C-3.01 5 -2.02 5 -1 5 C-0.67 3.35 -0.34 1.7 0 0 Z " fill="#6395E6" transform="translate(364,332)"/>
<path d="M0 0 C2.23637531 2.23637531 2.83847971 4.09619927 4 7 C4.66 7.66 5.32 8.32 6 9 C5.67 10.32 5.34 11.64 5 13 C2.36 9.37 -0.28 5.74 -3 2 C-2.01 1.34 -1.02 0.68 0 0 Z " fill="#769FE9" transform="translate(46,321)"/>
<path d="M0 0 C0.66 0 1.32 0 2 0 C2.33 0.99 2.66 1.98 3 3 C0.69 4.98 -1.62 6.96 -4 9 C-4.66 8.67 -5.32 8.34 -6 8 C-5.34 7.01 -4.68 6.02 -4 5 C-4.66 3.68 -5.32 2.36 -6 1 C-3.03 1.495 -3.03 1.495 0 2 C0 1.34 0 0.68 0 0 Z " fill="#072961" transform="translate(62,208)"/>
<path d="M0 0 C-7.11389522 6.51936219 -7.11389522 6.51936219 -12 8 C-12.33 7.01 -12.66 6.02 -13 5 C-11.35 4.67 -9.7 4.34 -8 4 C-8 3.34 -8 2.68 -8 2 C-3.61016949 -1.20338983 -3.61016949 -1.20338983 0 0 Z " fill="#2462CA" transform="translate(196,173)"/>
<path d="M0 0 C1.23086034 3.69258103 0.66728638 4.58206293 -1 8 C-1.96113866 9.36161311 -2.95884159 10.69855198 -4 12 C-4.99 13.485 -4.99 13.485 -6 15 C-6.66 15 -7.32 15 -8 15 C-6.62712658 11.30123909 -4.93644547 8.0485524 -2.875 4.6875 C-2.33617187 3.80449219 -1.79734375 2.92148438 -1.2421875 2.01171875 C-0.83226562 1.34785156 -0.42234375 0.68398437 0 0 Z " fill="#587CB9" transform="translate(41,101)"/>
<path d="M0 0 C5.75 3.625 5.75 3.625 8 7 C8 7.99 8 8.98 8 10 C6.35 10.33 4.7 10.66 3 11 C3 8 3 8 4 6 C3.34 5.67 2.68 5.34 2 5 C2.33 4.67 2.66 4.34 3 4 C2.01 3.34 1.02 2.68 0 2 C0 1.34 0 0.68 0 0 Z " fill="#1E3C6F" transform="translate(334,53)"/>
<path d="M0 0 C0.33 0.66 0.66 1.32 1 2 C5.29 1.34 9.58 0.68 14 0 C12 3 12 3 9.4375 3.6875 C5.27705498 4.06572227 1.17383087 4.08347662 -3 4 C-2.01 2.68 -1.02 1.36 0 0 Z " fill="#568DE4" transform="translate(343,339)"/>
<path d="M0 0 C0.66 0 1.32 0 2 0 C1.55005243 1.79379098 1.08975857 3.58498928 0.625 5.375 C0.36976563 6.37273437 0.11453125 7.37046875 -0.1484375 8.3984375 C-1 11 -1 11 -3 13 C-3.33 10.36 -3.66 7.72 -4 5 C-3.01 4.67 -2.02 4.34 -1 4 C-0.26676204 1.98491642 -0.26676204 1.98491642 0 0 Z " fill="#6F9DE7" transform="translate(400,269)"/>
<path d="M0 0 C4.12969572 6.19454359 4.30062652 12.78496357 4 20 C3.67 20 3.34 20 3 20 C3 18.02 3 16.04 3 14 C2.34 14 1.68 14 1 14 C0.67 9.38 0.34 4.76 0 0 Z " fill="#7497D3" transform="translate(402,154)"/>
<path d="M0 0 C2.86912988 2.86912988 2.96268558 6.09691175 3 10 C2.0625 13 2.0625 13 1 15 C0.34 14.34 -0.32 13.68 -1 13 C-0.9765625 9.9609375 -0.9765625 9.9609375 -0.625 6.375 C-0.51414063 5.18648437 -0.40328125 3.99796875 -0.2890625 2.7734375 C-0.19367188 1.85820312 -0.09828125 0.94296875 0 0 Z " fill="#679DF3" transform="translate(204,136)"/>
<path d="M0 0 C0.66 0 1.32 0 2 0 C1.3125 2.875 1.3125 2.875 0 6 C-2.375 7.25 -2.375 7.25 -5 8 C-6.34050052 8.65213539 -7.67661368 9.31379969 -9 10 C-7.76210371 6.28631113 -6.14775123 5.22645819 -3 3 C-2.34 3 -1.68 3 -1 3 C-0.67 2.01 -0.34 1.02 0 0 Z " fill="#4689F0" transform="translate(198,170)"/>
<path d="M0 0 C5.36996587 1.09219645 9.0056508 2.0056508 13 6 C13 6.66 13 7.32 13 8 C9.52709591 7.36276989 7.15645247 5.97562783 4.25 4 C3.45078125 3.46375 2.6515625 2.9275 1.828125 2.375 C1.22484375 1.92125 0.6215625 1.4675 0 1 C0 0.67 0 0.34 0 0 Z " fill="#5A92EE" transform="translate(140,71)"/>
<path d="M0 0 C-0.33 1.65 -0.66 3.3 -1 5 C-0.34 5.33 0.32 5.66 1 6 C-2.41021743 5.21302675 -5.68885166 4.12880057 -9 3 C-9 2.34 -9 1.68 -9 1 C-6.04335481 -0.4783226 -3.25770263 -0.06032783 0 0 Z " fill="#568FEA" transform="translate(103,46)"/>
<path d="M0 0 C1.98 0.66 3.96 1.32 6 2 C5.34 3.98 4.68 5.96 4 8 C3.01 7.67 2.02 7.34 1 7 C1.33 6.34 1.66 5.68 2 5 C1.34 5 0.68 5 0 5 C0 3.35 0 1.7 0 0 Z " fill="#082A63" transform="translate(289,385)"/>
<path d="M0 0 C0.33 0.66 0.66 1.32 1 2 C-2.33333333 5.33333333 -5.66666667 8.66666667 -9 12 C-9.36923077 7.44615385 -9.36923077 7.44615385 -7.5 5.1875 C-6.7575 4.5996875 -6.7575 4.5996875 -6 4 C-5.67 4.33 -5.34 4.66 -5 5 C-3.35 3.35 -1.7 1.7 0 0 Z " fill="#041E48" transform="translate(50,222)"/>
<path d="M0 0 C1.65 0.33 3.3 0.66 5 1 C4.34 2.98 3.68 4.96 3 7 C1.68 6.67 0.36 6.34 -1 6 C-0.67 4.02 -0.34 2.04 0 0 Z " fill="#021229" transform="translate(266,32)"/>
<path d="M0 0 C0 0.66 0 1.32 0 2 C-7.28571429 6.57142857 -7.28571429 6.57142857 -12 6 C-11.34 4.68 -10.68 3.36 -10 2 C-10 2.66 -10 3.32 -10 4 C-9.16855469 3.566875 -9.16855469 3.566875 -8.3203125 3.125 C-7.23363281 2.568125 -7.23363281 2.568125 -6.125 2 C-5.40570313 1.62875 -4.68640625 1.2575 -3.9453125 0.875 C-2 0 -2 0 0 0 Z " fill="#1C2C45" transform="translate(323,375)"/>
<path d="M0 0 C-0.33 1.65 -0.66 3.3 -1 5 C-2.65 5 -4.3 5 -6 5 C-6.33 3.68 -6.66 2.36 -7 1 C-4.53721199 -0.231394 -2.7204945 -0.07159196 0 0 Z " fill="#0E192C" transform="translate(358,343)"/>
<path d="M0 0 C2.38125464 2.38125464 3.00186241 4.33857567 4.125 7.5 C4.47820312 8.4796875 4.83140625 9.459375 5.1953125 10.46875 C6 13 6 13 6 15 C5.34 15 4.68 15 4 15 C4 14.01 4 13.02 4 12 C3.34 12 2.68 12 2 12 C0.70756464 7.8803623 -0.26252625 4.33168317 0 0 Z " fill="#6084C2" transform="translate(393,129)"/>
<path d="M0 0 C0.90064221 2.5217982 1.19407719 3.57303018 0.0625 6.0625 C-0.288125 6.701875 -0.63875 7.34125 -1 8 C-1 8.99 -1 9.98 -1 11 C-1.99 11.66 -2.98 12.32 -4 13 C-4 10.69 -4 8.38 -4 6 C-3.34 6 -2.68 6 -2 6 C-1.34 4.02 -0.68 2.04 0 0 Z " fill="#0F459E" transform="translate(32,120)"/>
<path d="M0 0 C2.96844435 -0.35338623 5.15598218 -0.5417682 7.734375 1.11328125 C9.20348819 2.35503168 10.60704814 3.67337918 12 5 C10.68 5.33 9.36 5.66 8 6 C8 5.34 8 4.68 8 4 C6.865625 3.71125 5.73125 3.4225 4.5625 3.125 C3.386875 2.75375 2.21125 2.3825 1 2 C0.67 1.34 0.34 0.68 0 0 Z " fill="#689EF2" transform="translate(104,52)"/>
<path d="M0 0 C2.97 0.99 5.94 1.98 9 3 C8.67 3.66 8.34 4.32 8 5 C1.25 4.125 1.25 4.125 -1 3 C-0.67 2.01 -0.34 1.02 0 0 Z " fill="#04122B" transform="translate(287,27)"/>
<path d="M0 0 C1.20220203 3.53094302 0.79532349 6.12898982 0.0625 9.75 C-0.13214844 10.73484375 -0.32679687 11.7196875 -0.52734375 12.734375 C-0.68332031 13.48203125 -0.83929688 14.2296875 -1 15 C-3.30143236 11.54785147 -3.13833854 10.76520676 -2.625 6.8125 C-2.51414062 5.91144531 -2.40328125 5.01039063 -2.2890625 4.08203125 C-2.19367187 3.39496094 -2.09828125 2.70789063 -2 2 C-1.34 2 -0.68 2 0 2 C0 1.34 0 0.68 0 0 Z " fill="#233F6A" transform="translate(16,162)"/>
<path d="M0 0 C0.33 0.66 0.66 1.32 1 2 C4.02934491 2.65772428 4.02934491 2.65772428 7 3 C7 3.66 7 4.32 7 5 C5.35 5 3.7 5 2 5 C2 4.34 2 3.68 2 3 C0.68 3.99 -0.64 4.98 -2 6 C-2.66 5.34 -3.32 4.68 -4 4 C-2.68 2.68 -1.36 1.36 0 0 Z " fill="#7EA8EF" transform="translate(93,47)"/>
<path d="M0 0 C0.66 0.33 1.32 0.66 2 1 C0.61447798 2.01423834 -0.78394288 3.01087002 -2.1875 4 C-2.96480469 4.556875 -3.74210937 5.11375 -4.54296875 5.6875 C-7.28336637 7.151369 -8.94100837 7.26080213 -12 7 C-8.44008172 4.03340143 -4.34777457 1.618652 0 0 Z " fill="#7FA5E7" transform="translate(125,28)"/>
<path d="M0 0 C2.35964273 0.40683495 3.85934088 0.89814339 5.8125 2.3125 C7 4 7 4 6.6875 6.1875 C6.460625 6.785625 6.23375 7.38375 6 8 C5.34 7.01 4.68 6.02 4 5 C1.94074861 4.27617533 1.94074861 4.27617533 0 4 C0 2.66666667 0 1.33333333 0 0 Z " fill="#5189E6" transform="translate(249,20)"/>
<path d="M0 0 C-1.28432364 2.56864728 -2.36634751 2.946539 -5 4 C-6.32 4 -7.64 4 -9 4 C-9 3.01 -9 2.02 -9 1 C-3.375 -1.125 -3.375 -1.125 0 0 Z " fill="#5290EB" transform="translate(161,18)"/>
<path d="M0 0 C2.125 0.9375 2.125 0.9375 4 2 C3.67 3.65 3.34 5.3 3 7 C1.02 6.01 -0.96 5.02 -3 4 C-2.67 3.01 -2.34 2.02 -2 1 C-1.34 0.67 -0.68 0.34 0 0 Z " fill="#508EF1" transform="translate(76,353)"/>
<path d="M0 0 C-0.1875 1.875 -0.1875 1.875 -1 4 C-3.5625 5.25 -3.5625 5.25 -6 6 C-6.33 5.34 -6.66 4.68 -7 4 C-6.67 3.01 -6.34 2.02 -6 1 C-4 0 -4 0 0 0 Z " fill="#20293B" transform="translate(330,369)"/>
<path d="M0 0 C5.75 3.625 5.75 3.625 8 7 C7.625 9.1875 7.625 9.1875 7 11 C6.66226563 10.50628906 6.32453125 10.01257813 5.9765625 9.50390625 C5.30753906 8.54291016 5.30753906 8.54291016 4.625 7.5625 C4.18414062 6.92441406 3.74328125 6.28632812 3.2890625 5.62890625 C2.07839147 3.86259072 2.07839147 3.86259072 0 3 C0 2.01 0 1.02 0 0 Z " fill="#6399F0" transform="translate(191,113)"/>
<path d="M0 0 C2.61724095 2.36797991 4.32861729 4.89600354 6 8 C6 8.66 6 9.32 6 10 C4.02 10.99 4.02 10.99 2 12 C1 10 1 10 1.5625 8.25 C2.17547283 5.0975683 1.1372946 2.94358602 0 0 Z " fill="#5086DC" transform="translate(264,37)"/>
<path d="M0 0 C0.33 0.66 0.66 1.32 1 2 C1.66 2.33 2.32 2.66 3 3 C2.34 4.32 1.68 5.64 1 7 C-0.65 6.67 -2.3 6.34 -4 6 C-2.68 4.02 -1.36 2.04 0 0 Z " fill="#5890EE" transform="translate(125,383)"/>
<path d="M0 0 C3.8063457 0.67170806 7.35206816 1.72746564 11 3 C10.01 3.495 10.01 3.495 9 4 C9 4.66 9 5.32 9 6 C6.03824877 5.38722388 4.61941217 4.74627478 2 3 C2 2.34 2 1.68 2 1 C1.34 0.67 0.68 0.34 0 0 Z " fill="#092A5C" transform="translate(285,337)"/>
<path d="M0 0 C1.60463449 0.31008884 3.20869231 0.62316287 4.8125 0.9375 C5.70582031 1.11152344 6.59914063 1.28554687 7.51953125 1.46484375 C10 2 10 2 13 3 C13 3.66 13 4.32 13 5 C11.3934324 4.74379316 9.7897517 4.46944129 8.1875 4.1875 C7.29417969 4.03667969 6.40085937 3.88585937 5.48046875 3.73046875 C2.81678744 2.94604607 1.74309678 2.11372201 0 0 Z " fill="#76A9F9" transform="translate(269,238)"/>
<path d="M0 0 C4.41889613 1.35021826 6.34345343 3.26115668 9 7 C6.03 6.505 6.03 6.505 3 6 C2.67 5.01 2.34 4.02 2 3 C1.34 2.67 0.68 2.34 0 2 C0 1.34 0 0.68 0 0 Z " fill="#304D79" transform="translate(341,60)"/>
<path d="M0 0 C0.66 0.66 1.32 1.32 2 2 C1.625 4.125 1.625 4.125 1 6 C-0.98 5.01 -2.96 4.02 -5 3 C-5 2.34 -5 1.68 -5 1 C-2.625 0.375 -2.625 0.375 0 0 Z " fill="#538EEF" transform="translate(118,34)"/>
<path d="M0 0 C2.31 0.66 4.62 1.32 7 2 C7.33 4.31 7.66 6.62 8 9 C5.06799526 6.14723863 2.35684596 3.34920216 0 0 Z " fill="#73A0EA" transform="translate(54,337)"/>
<path d="M0 0 C0 1.32 0 2.64 0 4 C-0.66 4 -1.32 4 -2 4 C-2 5.65 -2 7.3 -2 9 C-4.5654594 6.4345406 -4.54046087 4.52313332 -5 1 C-2 0 -2 0 0 0 Z " fill="#040E21" transform="translate(21,256)"/>
<path d="M0 0 C3.94120709 0.56302958 6.7508723 1.6791945 10 4 C10 4.66 10 5.32 10 6 C6.51329166 4.8905928 3.22515763 3.73662334 0 2 C0 1.34 0 0.68 0 0 Z " fill="#2B6BD7" transform="translate(185,242)"/>
<path d="M0 0 C0.33 0.99 0.66 1.98 1 3 C0.67 3.33 0.34 3.66 0 4 C-2.33944736 3.71269945 -4.6739143 3.38063221 -7 3 C-7 2.34 -7 1.68 -7 1 C-2.25 0 -2.25 0 0 0 Z " fill="#134995" transform="translate(260,401)"/>
<path d="M0 0 C1.98 0 3.96 0 6 0 C6.33 1.32 6.66 2.64 7 4 C7.99 4 8.98 4 10 4 C9.67 4.99 9.34 5.98 9 7 C7.4972763 6.02501855 5.99788037 5.04490611 4.5 4.0625 C3.6646875 3.51722656 2.829375 2.97195313 1.96875 2.41015625 C1.3190625 1.94480469 0.669375 1.47945313 0 1 C0 0.67 0 0.34 0 0 Z " fill="#739FE4" transform="translate(99,377)"/>
<path d="M0 0 C3 1 3 1 4.25 3.3125 C5.0275526 6.09873015 4.98726527 7.33438378 4 10 C0 3.375 0 3.375 0 0 Z " fill="#76A3E7" transform="translate(29,296)"/>
<path d="M0 0 C0.66 0 1.32 0 2 0 C2 1.32 2 2.64 2 4 C1.34 4 0.68 4 0 4 C-0.33 5.65 -0.66 7.3 -1 9 C-1.66 8.67 -2.32 8.34 -3 8 C-2.67 6.35 -2.34 4.7 -2 3 C-1.34 3 -0.68 3 0 3 C0 2.01 0 1.02 0 0 Z " fill="#548BF3" transform="translate(38,241)"/>
<path d="M0 0 C1.625 1.6875 1.625 1.6875 3 4 C2.1875 6.75 2.1875 6.75 1 9 C0.01 8.67 -0.98 8.34 -2 8 C-1.34 5.36 -0.68 2.72 0 0 Z " fill="#1A54B2" transform="translate(38,108)"/>
<path d="M0 0 C4.1424367 1.38081223 5.32203099 3.59825558 8 7 C7.67 7.66 7.34 8.32 7 9 C1.21538462 5.67692308 1.21538462 5.67692308 0.125 2.25 C0.08375 1.5075 0.0425 0.765 0 0 Z " fill="#7CAEFA" transform="translate(175,96)"/>
<path d="M0 0 C-0.66 1.65 -1.32 3.3 -2 5 C-2.99 4.67 -3.98 4.34 -5 4 C-4.67 3.34 -4.34 2.68 -4 2 C-5.32 2.33 -6.64 2.66 -8 3 C-8 2.34 -8 1.68 -8 1 C-5.07175348 0.02391783 -3.04386724 -0.08226668 0 0 Z " fill="#09234B" transform="translate(321,43)"/>
<path d="M0 0 C-4.51350747 3.52273754 -7.28341664 4.45732667 -13 4 C-10.56272708 2.37515139 -8.62713877 1.34310925 -5.9375 0.3125 C-5.24527344 0.04050781 -4.55304688 -0.23148438 -3.83984375 -0.51171875 C-2 -1 -2 -1 0 0 Z " fill="#84ABEA" transform="translate(147,21)"/>
<path d="M0 0 C0.5534764 2.07553648 1 3.84365964 1 6 C1.99 6.33 2.98 6.66 4 7 C4.6875 9.0625 4.6875 9.0625 5 11 C1.26115668 8.34345343 -0.64978174 6.41889613 -2 2 C-1.34 1.34 -0.68 0.68 0 0 Z " fill="#4F86E4" transform="translate(235,288)"/>
<path d="M0 0 C0.99 0.99 1.98 1.98 3 3 C2.67 3.99 2.34 4.98 2 6 C0.35 6 -1.3 6 -3 6 C-1.125 1.125 -1.125 1.125 0 0 Z " fill="#3A6DC1" transform="translate(147,258)"/>
<path d="M0 0 C0.66 0.66 1.32 1.32 2 2 C1.34 3.65 0.68 5.3 0 7 C-0.99 6.34 -1.98 5.68 -3 5 C-3 3.68 -3 2.36 -3 1 C-2.01 0.67 -1.02 0.34 0 0 Z " fill="#518EF2" transform="translate(45,233)"/>
<path d="M0 0 C2.88437779 1.29299694 4.87219421 2.65941363 7 5 C4.69 4.67 2.38 4.34 0 4 C-0.33 3.01 -0.66 2.02 -1 1 C-0.67 0.67 -0.34 0.34 0 0 Z " fill="#6FA4F7" transform="translate(170,91)"/>
<path d="M0 0 C2.64 0 5.28 0 8 0 C7.67 0.99 7.34 1.98 7 3 C5.02 3 3.04 3 1 3 C0.67 2.01 0.34 1.02 0 0 Z " fill="#528EEA" transform="translate(297,338)"/>
<path d="M0 0 C0.66 0 1.32 0 2 0 C2 2.64 2 5.28 2 8 C0.68 7.67 -0.64 7.34 -2 7 C-1.34 4.69 -0.68 2.38 0 0 Z " fill="#518DEB" transform="translate(286,329)"/>
<path d="M0 0 C1.32 0.33 2.64 0.66 4 1 C3.67 2.65 3.34 4.3 3 6 C2.01 6 1.02 6 0 6 C0 4.02 0 2.04 0 0 Z " fill="#6296E6" transform="translate(376,314)"/>
<path d="M0 0 C1.33332095 2.6666419 0.67102033 4.16680303 0 7 C-1.32 6.67 -2.64 6.34 -4 6 C-4.33 4.68 -4.66 3.36 -5 2 C-4.360625 1.855625 -3.72125 1.71125 -3.0625 1.5625 C-1.02454854 1.18992819 -1.02454854 1.18992819 0 0 Z " fill="#6093ED" transform="translate(39,304)"/>
<path d="M0 0 C0.66 0 1.32 0 2 0 C0.84414715 3.91211733 -0.35534962 6.8745041 -3 10 C-2.25 3.375 -2.25 3.375 0 0 Z " fill="#01193C" transform="translate(31,247)"/>
<path d="M0 0 C1 2 1 2 0.1875 5 C-1 8 -1 8 -3 10 C-2.88637738 8.5199159 -2.75877092 7.04089926 -2.625 5.5625 C-2.55539063 4.73878906 -2.48578125 3.91507813 -2.4140625 3.06640625 C-2.27742188 2.38449219 -2.14078125 1.70257813 -2 1 C-1.34 0.67 -0.68 0.34 0 0 Z " fill="#02152D" transform="translate(36,237)"/>
<path d="M0 0 C0.99 0 1.98 0 3 0 C5.25 2.3125 5.25 2.3125 7 5 C6.67 5.99 6.34 6.98 6 8 C4.9970458 6.85675161 3.99770973 5.71032809 3 4.5625 C2.443125 3.92441406 1.88625 3.28632812 1.3125 2.62890625 C0 1 0 1 0 0 Z " fill="#5A91E8" transform="translate(177,96)"/>
<path d="M0 0 C2.475 0.99 2.475 0.99 5 2 C4.67 2.66 4.34 3.32 4 4 C3.67 4.99 3.34 5.98 3 7 C2.01 6.34 1.02 5.68 0 5 C-0.1875 2.375 -0.1875 2.375 0 0 Z " fill="#78A6F5" transform="translate(128,64)"/>
<path d="M0 0 C0 0.66 0 1.32 0 2 C-0.99 2 -1.98 2 -3 2 C-3 2.66 -3 3.32 -3 4 C-6 6 -6 6 -8.1875 5.625 C-8.785625 5.41875 -9.38375 5.2125 -10 5 C-8.71186658 4.16121545 -7.41936744 3.32913217 -6.125 2.5 C-5.40570313 2.0359375 -4.68640625 1.571875 -3.9453125 1.09375 C-2 0 -2 0 0 0 Z " fill="#85ACEA" transform="translate(113,35)"/>
<path d="M0 0 C6.75 -0.125 6.75 -0.125 9 1 C9 1.66 9 2.32 9 3 C2.84765625 2.4140625 2.84765625 2.4140625 1 2 C0.67 1.34 0.34 0.68 0 0 Z " fill="#88A8DB" transform="translate(162,404)"/>
<path d="M0 0 C1.40907283 2.81814566 0.50872691 4.17277204 -0.4375 7.125 C-0.72496094 8.03507812 -1.01242188 8.94515625 -1.30859375 9.8828125 C-1.53675781 10.58148438 -1.76492187 11.28015625 -2 12 C-2.33 12 -2.66 12 -3 12 C-3 9.36 -3 6.72 -3 4 C-2.34 4 -1.68 4 -1 4 C-0.67 2.68 -0.34 1.36 0 0 Z " fill="#5990EA" transform="translate(131,282)"/>
<path d="M0 0 C4.875 4.625 4.875 4.625 6 8 C5.01 8 4.02 8 3 8 C2.71125 7.38125 2.4225 6.7625 2.125 6.125 C1.06279958 3.86674235 1.06279958 3.86674235 -1 2 C-0.67 1.34 -0.34 0.68 0 0 Z " fill="#0A3C88" transform="translate(226,283)"/>
<path d="M0 0 C0.66 0 1.32 0 2 0 C3.32 2.31 4.64 4.62 6 7 C1.32307692 5.52307692 1.32307692 5.52307692 -0.3125 2.875 C-0.539375 2.25625 -0.76625 1.6375 -1 1 C-0.67 0.67 -0.34 0.34 0 0 Z " fill="#083B90" transform="translate(216,270)"/>
<path d="M0 0 C0.66 0.33 1.32 0.66 2 1 C1.67 2.32 1.34 3.64 1 5 C1 4.34 1 3.68 1 3 C-0.32 3.99 -1.64 4.98 -3 6 C-3.66 5.67 -4.32 5.34 -5 5 C-3.35 3.35 -1.7 1.7 0 0 Z " fill="#527BBF" transform="translate(51,89)"/>
<path d="M0 0 C2.97 0.33 5.94 0.66 9 1 C9.33 1.99 9.66 2.98 10 4 C6.7 3.01 3.4 2.02 0 1 C0 0.67 0 0.34 0 0 Z " fill="#9DBBEB" transform="translate(135,396)"/>
<path d="M0 0 C2.31 0.33 4.62 0.66 7 1 C4.61426621 2.89213369 2.92824652 4.02391783 0 5 C0 3.35 0 1.7 0 0 Z " fill="#1A3969" transform="translate(293,388)"/>
<path d="M0 0 C0.66 0.66 1.32 1.32 2 2 C0.68 4.64 -0.64 7.28 -2 10 C-2.33 10 -2.66 10 -3 10 C-2.67 7.69 -2.34 5.38 -2 3 C-1.34 3 -0.68 3 0 3 C0 2.01 0 1.02 0 0 Z " fill="#78A0E9" transform="translate(386,302)"/>
<path d="M0 0 C0.99 0.33 1.98 0.66 3 1 C2.67 2.65 2.34 4.3 2 6 C1.01 5.67 0.02 5.34 -1 5 C-0.67 3.35 -0.34 1.7 0 0 Z " fill="#4C90F5" transform="translate(394,275)"/>
<path d="M0 0 C2.475 0.99 2.475 0.99 5 2 C4.67 2.66 4.34 3.32 4 4 C2.35 4 0.7 4 -1 4 C-0.67 2.68 -0.34 1.36 0 0 Z " fill="#508EEA" transform="translate(25,268)"/>
<path d="M0 0 C0.66 0.33 1.32 0.66 2 1 C2 1.66 2 2.32 2 3 C0.37373596 4.38232443 -1.2925002 5.71937515 -3 7 C-3.1875 4.625 -3.1875 4.625 -3 2 C-2.01 1.34 -1.02 0.68 0 0 Z " fill="#5388EB" transform="translate(29,260)"/>
<path d="M0 0 C-3.22515763 1.73662334 -6.51329166 2.8905928 -10 4 C-10 3.01 -10 2.02 -10 1 C-6.61981469 -0.04005702 -3.5219721 -0.08004482 0 0 Z " fill="#5790EB" transform="translate(344,234)"/>
<path d="M0 0 C0.33 0.99 0.66 1.98 1 3 C-0.65 4.65 -2.3 6.3 -4 8 C-4.66 7.34 -5.32 6.68 -6 6 C-4.625 4.5 -4.625 4.5 -3 3 C-2.34 3 -1.68 3 -1 3 C-0.67 2.01 -0.34 1.02 0 0 Z " fill="#2F6EE1" transform="translate(200,165)"/>
<path d="M0 0 C0 1.32 0 2.64 0 4 C-1.98 4 -3.96 4 -6 4 C-6 3.01 -6 2.02 -6 1 C-3.92446352 0.4465236 -2.15634036 0 0 0 Z " fill="#2C60B8" transform="translate(48,100)"/>
<path d="M0 0 C1.5 1.1875 1.5 1.1875 3 3 C3.1875 5.6875 3.1875 5.6875 3 8 C2.01 8 1.02 8 0 8 C0 5.36 0 2.72 0 0 Z " fill="#2756A7" transform="translate(373,94)"/>
<path d="M0 0 C0.33 0 0.66 0 1 0 C1 1.98 1 3.96 1 6 C-0.98 6.33 -2.96 6.66 -5 7 C-4.19152271 5.83054208 -3.37810888 4.66449539 -2.5625 3.5 C-2.11003906 2.8503125 -1.65757813 2.200625 -1.19140625 1.53125 C-0.79824219 1.0259375 -0.40507813 0.520625 0 0 Z " fill="#7092CC" transform="translate(58,78)"/>
<path d="M0 0 C1.9375 0.3125 1.9375 0.3125 4 1 C4.33 1.99 4.66 2.98 5 4 C3.68 4.33 2.36 4.66 1 5 C1 4.34 1 3.68 1 3 C0.34 3 -0.32 3 -1 3 C-0.67 2.01 -0.34 1.02 0 0 Z " fill="#0B3A83" transform="translate(354,74)"/>
<path d="M0 0 C0 3.10551666 -0.5393715 4.35261084 -2 7 C-3.32 6.67 -4.64 6.34 -6 6 C-4.02 4.02 -2.04 2.04 0 0 Z " fill="#7899D2" transform="translate(65,71)"/>
<path d="M0 0 C3.3 0 6.6 0 10 0 C9.01 0.33 8.02 0.66 7 1 C7 1.66 7 2.32 7 3 C4.69 2.34 2.38 1.68 0 1 C0 0.67 0 0.34 0 0 Z " fill="#6691DA" transform="translate(239,13)"/>
<path d="M0 0 C0.99 0.33 1.98 0.66 3 1 C2.34 2.32 1.68 3.64 1 5 C-0.32 4.67 -1.64 4.34 -3 4 C-2.01 2.68 -1.02 1.36 0 0 Z " fill="#1B2432" transform="translate(338,360)"/>
<path d="M0 0 C1.98 0.99 1.98 0.99 4 2 C3.34 4.31 2.68 6.62 2 9 C-0.29013653 5.5647952 -0.17842973 4.014669 0 0 Z " fill="#6FA1F1" transform="translate(126,302)"/>
<path d="M0 0 C0 2.62113708 -0.31292445 4.50935112 -1 7 C-2.32 7 -3.64 7 -5 7 C-3.70700306 4.11562221 -2.34058637 2.12780579 0 0 Z " fill="#386EC3" transform="translate(153,251)"/>
<path d="M0 0 C-2.38573379 1.89213369 -4.07175348 3.02391783 -7 4 C-7 2.68 -7 1.36 -7 0 C-3.98968256 -0.93423645 -3.13349732 -1.04449911 0 0 Z " fill="#04317B" transform="translate(81,201)"/>
<path d="M0 0 C3.875 1.75 3.875 1.75 5 4 C3.68 4 2.36 4 1 4 C0.34 4.66 -0.32 5.32 -1 6 C-0.67 4.02 -0.34 2.04 0 0 Z " fill="#284E88" transform="translate(353,71)"/>
<path d="M0 0 C0.99 0.33 1.98 0.66 3 1 C1.68 2.65 0.36 4.3 -1 6 C-1.66 5.67 -2.32 5.34 -3 5 C-2.01 3.35 -1.02 1.7 0 0 Z " fill="#648ECF" transform="translate(68,68)"/>
<path d="M0 0 C0.66 0.33 1.32 0.66 2 1 C1.67 1.99 1.34 2.98 1 4 C-2.5625 5.1875 -2.5625 5.1875 -6 6 C-4 4 -2 2 0 0 Z " fill="#9AB6E5" transform="translate(88,50)"/>
<path d="M0 0 C1.98 0.66 3.96 1.32 6 2 C3.35261084 3.4606285 2.10551666 4 -1 4 C-0.67 2.68 -0.34 1.36 0 0 Z " fill="#060F23" transform="translate(281,24)"/>
</svg>
